<svg width="800" height="800" xmlns="http://www.w3.org/2000/svg">

 <g>
  <title>Layer 1</title>
  <g id="svg_32">
   <path d="m254.78261,482.6087c1.73912,4.34781 4.78227,12.14886 5.21739,23.47824c0.50058,13.03391 0,25.21738 0,33.04349c0,4.34784 0.7139,3.89197 5.21738,2.6087c14.4364,-4.11359 49.56631,-6.40424 96.52176,-6.08698c64.3522,0.43481 133.93604,2.29791 178.26086,0.86957c26.9986,-0.87 35.65216,-2.6087 35.65216,-3.47827c0,-0.86957 -2.49597,-4.4057 -5.21741,-9.56519c-4.17676,-7.9187 -7.69489,-17.43253 -11.30432,-28.69565c-3.35675,-10.47452 -3.26105,-19.53271 -6.08698,-21.73914c-0.68542,-0.53516 -4.32971,0.20496 -13.04346,0.86957c-16.4967,1.25827 -43.45868,3.0726 -79.13043,4.34781c-38.24631,1.36722 -73.04575,1.65768 -106.08694,2.6087c-27.82816,0.80096 -53.04349,1.73914 -70.43478,1.73914l-8.69568,0.86957l-4.34781,0l-1.73914,0" id="svg_5" stroke-width="12" stroke="#000" fill="#ffffff"/>
   <path d="m281.73914,544.34784c2.6087,4.34784 6.2247,13.8808 10.43478,32.17389c5.3942,23.43829 11.61591,51.24884 15.65216,74.78259c2.82745,16.48578 4.93478,25.75653 7.82608,30.43481c0.64651,1.04608 1.70016,3.95581 2.6087,6.95654c0.50397,1.66443 0,3.47821 0.86957,3.47821c0.86957,0 14.7038,-3.3111 42.6087,-6.08691c46.85391,-4.66071 87.82608,-4.34784 135.65216,-4.34784c34.78259,0 52.4859,5.15802 56.52173,1.73914c0.66351,-0.56207 0.86957,-1.73914 0.86957,-6.08698c0,-6.08698 0.3103,-14.78625 0,-27.82605c-0.43494,-18.27643 -3.83368,-40.97021 -7.82605,-60c-3.85425,-18.37146 -6.50983,-28.54242 -6.95654,-30.43481c-0.19977,-0.84631 0,-3.47827 0,-8.69568l0.86957,-3.47821l0,-0.86957" id="svg_8" stroke-width="12" stroke="#000000" fill="#ffffff"/>
   <path d="m398.7952,479.48872c0,-1.20483 0.04984,-9.63406 1.2048,-22.89139c1.25916,-14.45309 1.2048,-30.12027 1.2048,-44.57797c0,-12.0481 0,-22.89139 0,-34.93948c0,-13.25293 -2.20679,-28.04556 -6.02405,-40.96353c-4.43854,-15.02048 -11.77725,-29.03128 -18.07214,-43.37317c-6.93301,-15.79572 -13.82791,-35.17784 -20.48178,-51.80682c-4.4082,-11.01678 -8.43365,-16.86734 -9.63846,-20.48177l0,-1.2048" id="svg_22" stroke-width="8" stroke="#000000" fill="none"/>
   <path stroke="#000000" d="m403.61444,479.85496c1.2048,-2.49537 2.40372,-12.29176 3.61441,-24.95386c1.78079,-18.62431 2.40964,-36.1831 2.40964,-56.14621c0,-22.45845 -0.06995,-43.6774 2.40961,-66.12773c2.34354,-21.2187 2.76038,-37.46217 3.61444,-49.90771c0.60391,-8.80033 2.0538,-16.98635 7.22885,-26.20156c4.73062,-8.42382 12.0481,-18.71539 18.07214,-27.44925c6.02405,-8.73385 10.84329,-17.46771 15.66254,-26.20156l2.40961,-3.74308l1.2048,-2.49539" id="svg_25" stroke-width="8" fill="none"/>
   <path d="m408.03176,179.15511c-1.01007,-1.0101 -1.51132,-1.92705 -2.02017,-6.06056c-0.49368,-4.01009 0.50406,-12.07394 1.0101,-20.20184c0.31381,-5.0407 2.02017,-11.11101 5.05045,-15.15138c3.03027,-4.04037 5.1077,-7.99744 8.08075,-10.10092c4.12289,-2.91701 8.17279,-5.85419 15.15137,-9.09084c8.19592,-3.80127 14.15045,-6.99982 22.22205,-8.08073c7.07922,-0.94803 14.14725,-1.32019 22.22202,-1.01009c13.16031,0.50542 25.60202,0.77916 38.38351,5.05046c9.43536,3.15309 18.40329,9.76254 26.26239,15.15138c8.33066,5.71216 16.39929,11.85422 23.23215,18.18166c6.2887,5.8235 11.11102,11.11104 15.15137,19.19176c4.04041,8.08075 5.54999,18.33366 9.09082,29.29268c2.65338,8.21222 4.04041,15.15138 6.06055,21.21193c2.0202,6.06055 2.54504,13.20676 4.04041,21.21194c1.52948,8.18784 3.57996,16.02707 5.05048,23.23212c1.62848,7.97916 3.87262,15.20905 7.07062,24.24222c2.88019,8.13544 5.24652,13.01862 8.08075,18.18167c2.17377,3.95987 4.39001,7.7832 6.06055,10.10092c1.32062,1.83228 3.55566,5.37738 5.05048,7.07065c2.41028,2.73026 4.04034,3.03027 5.05042,3.03027c2.0202,0 3.03033,1.0101 5.05048,1.0101c1.01013,0 2.0202,0 1.01013,0c-2.0202,0 -3.79907,-1.43021 -7.07068,-3.0303c-2.86938,-1.40338 -5.18481,-2.59543 -9.09082,-4.04034c-4.23669,-1.56726 -8.15997,-2.81799 -11.11102,-4.04037c-2.08673,-0.86435 -3.91766,-1.50854 -7.07062,-2.0202c-2.99115,-0.48541 -6.97754,-1.51132 -11.11102,-2.02017c-4.01013,-0.49368 -10.13043,-0.41293 -16.1615,-1.0101c-5.12543,-0.50751 -10.10089,-1.01007 -15.15137,-1.01007c-3.03027,0 -8.08075,0 -11.11102,0c-3.03027,0 -7.07065,0 -12.12112,0c-5.05045,0 -9.09082,0 -14.14127,0c-4.04037,0 -9.09085,0 -14.1413,0c-7.07065,0 -13.1312,0 -21.21194,0c-6.06055,0 -12.095,-0.1405 -17.17157,-1.0101c-7.03989,-1.2059 -13.14828,-1.92261 -19.19174,-3.03027c-5.0661,-0.92853 -9.21918,-2.70566 -12.12112,-4.04037c-5.35095,-2.46109 -10.4516,-6.35214 -15.15137,-9.09082c-5.5882,-3.25641 -8.08075,-7.07065 -12.12112,-11.11102c-4.04037,-4.04037 -8.36691,-9.905 -13.1312,-17.17157c-3.2294,-4.92554 -6.06055,-10.10092 -7.07065,-14.1413c-1.0101,-4.04037 -1.56265,-9.20432 -3.03027,-14.1413c-1.54996,-5.21399 -3.92053,-12.14655 -5.05048,-17.17157c-0.91367,-4.06326 -1.01007,-9.09082 -1.01007,-13.1312c0,-4.04037 1.15582,-8.01421 2.02017,-10.10092c1.22238,-2.95105 1.89661,-5.11714 3.03027,-7.07065c1.82797,-3.14996 4.04037,-4.04037 6.06055,-6.06055c1.0101,-1.0101 3.0303,-2.02019 5.05048,-2.02019l1.0101,0l1.01007,0" id="svg_14" stroke-width="12" stroke="#000000" fill="#ffffff"/>
   <path d="m424.24256,176.14686c2.40961,0 10.75574,3.79366 20.48178,8.43367c13.13913,6.26831 28.11295,12.55969 40.96353,20.48177c16.21594,9.99673 32.81589,21.37045 42.16837,30.12024c3.73267,3.49214 3.61438,4.81924 3.61438,6.02406l0,1.2048" id="svg_26" stroke-width="8" stroke="#000000" fill="none"/>
   <path d="m347.52883,221.92963c0,-3.61443 2.52756,-5.81253 4.81924,-7.22887c3.07462,-1.90022 4.81924,0 8.43369,0c1.2048,0 3.8385,-0.37042 6.02405,1.20482c1.38223,0.99626 1.2048,3.61443 1.2048,8.43367c0,7.22885 -0.95862,14.56752 -4.81924,22.89139c-3.40054,7.33191 -9.11575,13.72269 -15.66254,20.48177c-10.09366,10.42093 -25.5704,21.26859 -48.19238,36.14429c-23.1752,15.23947 -47.41779,29.40356 -69.87898,43.37317c-14.75505,9.17682 -23.72682,17.51938 -25.30099,16.86734c-1.11313,-0.46106 0,-2.40964 -1.20482,-7.22888c-1.2048,-4.81921 -3.00908,-9.54907 -3.61443,-15.66251c-0.47487,-4.79578 -1.28894,-10.82977 -2.40962,-18.07214c-1.30276,-8.4191 -1.2048,-19.27698 -1.2048,-27.71063c0,-8.43369 -1.04973,-18.14877 0,-25.30103c1.82657,-12.44525 5.5275,-23.10207 10.84328,-34.93948c5.51813,-12.28804 13.16866,-25.36478 20.48177,-34.93948c8.33824,-10.91685 13.84749,-18.96695 24.09621,-25.30101c11.45842,-7.0817 22.75945,-12.74658 33.73466,-14.45772c13.14874,-2.05 19.08145,-3.61443 22.89139,-3.61443c3.80997,0 7.13043,4.95436 12.0481,8.43367c7.09238,5.01797 12.0481,8.43367 14.45773,10.84329c3.61444,3.61443 5.97482,6.54871 8.43365,12.0481c2.50754,5.60831 3.43039,12.09789 4.81924,16.86734c1.06522,3.658 2.40964,7.22885 2.40964,9.63847c0,4.81924 0,6.02405 0,7.22887l0,1.2048" id="svg_30" stroke-width="12" stroke="#000000" fill="#ffffff"/>
   <path d="m331.86629,223.13444c-1.2048,0 -3.61441,2.40962 -10.84326,7.22887c-10.84329,7.22887 -29.16492,18.91087 -46.98761,31.32506c-13.44672,9.36615 -19.27695,16.86734 -21.68657,22.89139l0,4.81924l0,2.40961l0,1.2048" id="svg_31" stroke-width="8" stroke="#000000" fill="none"/>
  </g>
 </g>
</svg>