<svg width="640" height="640" xmlns="http://www.w3.org/2000/svg">
 <g>
  <title>Layer 1</title>
  <g id="svg_10">
   <path d="m213.74,454.35c2.6087,4.8184 6.2247,15.383 10.435,35.656c5.3942,25.975 11.616,56.796 15.652,82.877c2.8274,18.27 4.9348,28.544 7.8261,33.729c0.64651,1.1593 1.7002,4.384 2.6087,7.7095c0.50397,1.8446 0,3.8547 0.86957,3.8547s14.704,-3.6695 42.609,-6.7457c46.854,-5.1652 87.826,-4.8184 135.65,-4.8184c34.783,0 52.486,5.7163 56.522,1.9274c0.66351,-0.62291 0.86957,-1.9274 0.86957,-6.7458c0,-6.7458 0.3103,-16.387 0,-30.838c-0.43494,-20.255 -3.8337,-45.405 -7.826,-66.494c-3.8542,-20.36 -6.5098,-31.632 -6.9565,-33.729c-0.19977,-0.93791 0,-3.8547 0,-9.6369l0.86957,-3.8547l0,-0.96369" fill="#CC7C65" stroke-width="12" id="svg_2" stroke="#000000"/>
   <path d="m337.8,398.49c0,-1.2048 0.04984,-9.6341 1.2048,-22.891c1.2592,-14.453 1.2048,-30.12 1.2048,-44.578l0,-34.939c0,-13.253 -2.2068,-28.046 -6.024,-40.964c-4.4385,-15.02 -11.777,-29.031 -18.072,-43.373c-6.933,-15.796 -13.828,-35.178 -20.482,-51.807c-4.4082,-11.017 -8.4336,-16.867 -9.6385,-20.482l0,-1.2048" fill="none" stroke-width="8" id="svg_3" stroke="#000000"/>
   <path d="m342.61,398.85c1.2048,-2.4954 2.4037,-12.292 3.6144,-24.954c1.7808,-18.624 2.4096,-36.183 2.4096,-56.146c0,-22.458 -0.06995,-43.677 2.4096,-66.128c2.3435,-21.219 2.7604,-37.462 3.6144,-49.908c0.60391,-8.8003 2.0538,-16.986 7.2288,-26.202c4.7306,-8.4238 12.048,-18.715 18.072,-27.449c6.024,-8.7338 10.843,-17.468 15.663,-26.202l2.4096,-3.7431l1.2048,-2.4954" fill="none" stroke-width="8" id="svg_4" stroke="#000000"/>
   <path d="m347.03,98.16c-1.0101,-1.0101 -1.5113,-1.927 -2.0202,-6.0606c-0.49368,-4.0101 0.50406,-12.074 1.0101,-20.202c0.31381,-5.0407 2.0202,-11.111 5.0504,-15.151c3.0303,-4.0404 5.1077,-7.9974 8.0808,-10.101c4.1229,-2.917 8.1728,-5.8542 15.151,-9.0908c8.1959,-3.8013 14.15,-6.9998 22.222,-8.0807c7.0792,-0.94803 14.147,-1.3202 22.222,-1.0101c13.16,0.50542 25.602,0.77916 38.384,5.0505c9.4354,3.1531 18.403,9.7625 26.262,15.151c8.3307,5.7122 16.399,11.854 23.232,18.182c6.2887,5.8235 11.111,11.111 15.151,19.192c4.0404,8.0808 5.55,18.334 9.0908,29.293c2.6534,8.2122 4.0404,15.151 6.0606,21.212c2.0202,6.0606 2.545,13.207 4.0404,21.212c1.5295,8.1878 3.58,16.027 5.0505,23.232c1.6285,7.9792 3.8726,15.209 7.0706,24.242c2.8802,8.1354 5.2465,13.019 8.0808,18.182c2.1738,3.9599 4.39,7.7832 6.0606,10.101c1.3206,1.8323 3.5557,5.3774 5.0505,7.0706c2.4103,2.7303 4.0403,3.0303 5.0504,3.0303c2.0202,0 3.0303,1.0101 5.0505,1.0101l1.0101,0c-2.0202,0 -3.7991,-1.4302 -7.0707,-3.0303c-2.8694,-1.4034 -5.1848,-2.5954 -9.0908,-4.0403c-4.2367,-1.5673 -8.16,-2.818 -11.111,-4.0404c-2.0867,-0.86435 -3.9177,-1.5085 -7.0706,-2.0202c-2.9912,-0.48541 -6.9775,-1.5113 -11.111,-2.0202c-4.0101,-0.49368 -10.13,-0.41293 -16.162,-1.0101c-5.1254,-0.50751 -10.101,-1.0101 -15.151,-1.0101l-11.111,0l-12.121,0l-14.141,0l-14.141,0l-21.212,0c-6.0606,0 -12.095,-0.1405 -17.172,-1.0101c-7.0399,-1.2059 -13.148,-1.9226 -19.192,-3.0303c-5.0661,-0.92853 -9.2192,-2.7057 -12.121,-4.0404c-5.351,-2.4611 -10.452,-6.3521 -15.151,-9.0908c-5.5882,-3.2564 -8.0808,-7.0706 -12.121,-11.111s-8.3669,-9.905 -13.131,-17.172c-3.2294,-4.9255 -6.0606,-10.101 -7.0706,-14.141c-1.0101,-4.0404 -1.5626,-9.2043 -3.0303,-14.141c-1.55,-5.214 -3.9205,-12.147 -5.0505,-17.172c-0.91367,-4.0633 -1.0101,-9.0908 -1.0101,-13.131c0,-4.0404 1.1558,-8.0142 2.0202,-10.101c1.2224,-2.951 1.8966,-5.1171 3.0303,-7.0706c1.828,-3.15 4.0404,-4.0404 6.0606,-6.0606c1.0101,-1.0101 3.0303,-2.0202 5.0505,-2.0202l1.0101,0l1.0101,0" fill="#729C62" stroke-width="8" id="svg_5" stroke="#000000"/>
   <path d="m363.24,95.15c2.4096,0 10.756,3.7937 20.482,8.4337c13.139,6.2683 28.113,12.56 40.964,20.482c16.216,9.9967 32.816,21.37 42.168,30.12c3.7327,3.4921 3.6144,4.8192 3.6144,6.0241l0,1.2048" fill="none" stroke-width="8" id="svg_6" stroke="#000000"/>
   <path transform="rotate(5 175.98 199.92)" d="m252,112c1,0 2,-3 3,-5s1.3107,-3.0802 2,-6c0.51373,-2.1762 1,-5 1,-6l0,-4c0,-1 -0.77023,-3.0268 -1,-4c-0.51373,-2.1762 -3.2929,-3.2929 -4,-4s-0.85272,-1.1731 -2,-2c-1.814,-1.3074 -2.8238,-2.4863 -5,-3c-0.97324,-0.22975 -1.6934,-0.4588 -3,-1c-0.92389,-0.38268 -3,0 -4,0c-3,0 -9.1124,0.54705 -14,2c-5.1619,1.5345 -9.0268,2.7702 -10,3c-2.1762,0.51374 -2.594,1.513 -5,3c-2.69,1.6625 -4.8126,2.2068 -7,4c-2.7883,2.2859 -5,5 -8,7s-5.1346,4.8114 -8,7c-2.5131,1.9195 -5,3 -7,6s-5.1121,6.9183 -8,11c-4.1649,5.8867 -7.3446,10.743 -11,16c-3.3288,4.7874 -6.6712,11.213 -10,16c-3.6554,5.2572 -7,12 -10,18s-4.493,11.234 -7,16c-3.3571,6.382 -7.3572,14.254 -10,20c-2.4365,5.2975 -4.7939,10.087 -7,15c-1.832,4.0796 -3.5471,9.1124 -5,14c-1.5345,5.1619 -3.772,10.12 -7,16c-2.8059,5.1114 -5.168,9.9204 -7,14c-2.2061,4.9126 -5.7702,12.744 -11,20c-4.1345,5.7364 -8.4645,9.4645 -12,13s-6.9183,8.1122 -11,11c-2.9434,2.0825 -5,4 -8,6s-7.9434,4.1477 -13,6c-2.9693,1.0877 -5,2 -4,2s2.132,-1.7553 6,-4c3.1185,-1.8097 8.6412,-5.5504 13,-8c4.6946,-2.6383 10.823,-5.328 18,-9c10.757,-5.5033 22.041,-8.8787 31,-12c11.053,-3.851 20.083,-7.6945 28,-10c9.1085,-2.6524 17.045,-4.8484 24,-7c6.042,-1.8692 12.968,-4.1169 20,-6c7.9656,-2.133 16.886,-4.3242 25,-7c6.9139,-2.28 14.886,-4.3242 23,-7c6.9139,-2.28 14.086,-4.8347 20,-8c7.1083,-3.8042 13.968,-7.0533 19,-10c6.9571,-4.0742 13,-7 17,-10s8.3102,-6.719 11,-10c2.2859,-2.7883 6.4505,-6.4505 9,-9s4,-6 6,-9s2.4962,-6.9078 3,-11c0.61093,-4.9625 0.49622,-9.9078 1,-14c0.48874,-3.97 0,-7 0,-11s-0.09543,-7.9773 -1,-12c-1.1186,-4.9748 -1.4484,-8.8056 -3,-13c-1.4305,-3.867 -2.7695,-6.391 -5,-10c-1.6625,-2.69 -2.6934,-5.4588 -4,-6c-0.92389,-0.38269 -1.0535,-0.5405 -3,-1c-2.1762,-0.51375 -4,-2 -6,-3s-3.6934,-3.4588 -5,-4c-0.92389,-0.38269 -1.6934,-0.4588 -3,-1c-2.7716,-1.1481 -4,-1 -5,-1c-2,0 -3,-1 -4,-1l-6,0c-1,0 -2.0803,-0.68925 -5,0c-2.1762,0.51375 -3.0268,0.77025 -4,1c-2.1762,0.51375 -3,1 -4,1s-2,0 -5,1l-1,0" fill="#729C62" stroke-width="8" id="svg_7" stroke="#000000"/>
   <path d="m270.87,141.13c-1.2048,0 -3.6144,2.4096 -10.843,7.2289c-10.843,7.2289 -29.165,18.911 -46.988,31.325c-13.447,9.3662 -19.277,16.867 -21.687,22.891l0,4.8192l0,2.4096l0,1.2048" fill="none" stroke-width="8" id="svg_8" stroke="#000000"/>
   <path d="m192,395l7,0c10,0 21.98,0.49982 41,1c17.994,0.47321 41.033,-1.1119 60,0c17.088,1.0017 28,2 37,2l30,0l42,0c11,0 21,1 30,1l18,0c5,0 12.938,0.49829 19,1c5.9796,0.49487 10.029,-0.59122 16,0c5.0742,0.50244 8.7703,2.0268 9,3c0.51373,2.1762 2,5 2,8l0,10c0,5 1.4935,8.8785 2,12c0.64075,3.9484 1.4863,6.8237 2,9c0.45953,1.9465 0.78986,4.0784 2,7c0.85571,2.0659 2.7071,3.2929 2,4s-2,0 -9,0l-26,0l-46,0c-15,0 -29.971,-0.49963 -43,-1c-11.991,-0.46051 -24.023,-0.638 -33,0c-7.0533,0.50128 -13.988,1.0988 -22,2c-9.9869,1.1234 -24,1 -37,1l-33,0l-23,0c-10,0 -20.012,0.44238 -28,0c-9.0415,-0.50079 -16,-1 -17,-1s-0.31073,-2.0803 -1,-5c-0.51373,-2.1763 -2,-5 -2,-8s0.48627,-6.8237 1,-9c0.91901,-3.893 0,-7 0,-11l0,-7l0,-6c0,-1 -0.48627,-1.8238 -1,-4c-0.22977,-0.97324 0.29291,-2.2929 1,-3l2,-2c0.70709,-0.70709 0.82376,-2.4863 3,-3c1.9465,-0.4595 3,0 5,0l6,0l1,0l1,0" fill="#CC7C65" stroke-width="12" id="svg_9" stroke="#000000"/>
  </g>
 </g>

</svg>