<svg width="800" height="800" xmlns="http://www.w3.org/2000/svg">
 <g>
  <title>Layer 1</title>
  <g id="svg_10">
   <path stroke="#000000" fill="#ffffff" stroke-width="12" id="svg_8" d="m274.73914,535.34784c2.6087,4.81843 6.2247,15.38319 10.43478,35.65624c5.3942,25.97514 11.61591,56.79578 15.65216,82.87671c2.82745,18.27012 4.93478,28.5443 7.82608,33.72893c0.64651,1.1593 1.70016,4.38397 2.6087,7.70948c0.50397,1.84458 0,3.85468 0.86957,3.85468c0.86957,0 14.7038,-3.66948 42.6087,-6.74573c46.85391,-5.16516 87.82608,-4.81843 135.65216,-4.81843c34.78259,0 52.4859,5.7163 56.52173,1.92738c0.66351,-0.62291 0.86957,-1.92738 0.86957,-6.74581c0,-6.74581 0.3103,-16.38664 0,-30.83781c-0.43494,-20.25459 -3.83368,-45.40463 -7.82605,-66.49412c-3.85425,-20.3599 -6.50983,-31.63172 -6.95654,-33.72893c-0.19977,-0.93791 0,-3.85474 0,-9.63686l0.86957,-3.85468l0,-0.96369"/>
   <path fill="none" stroke="#000000" stroke-width="8" id="svg_22" d="m398.7952,479.48872c0,-1.20483 0.04984,-9.63406 1.2048,-22.89139c1.25916,-14.45309 1.2048,-30.12027 1.2048,-44.57797c0,-12.0481 0,-22.89139 0,-34.93948c0,-13.25293 -2.20679,-28.04556 -6.02405,-40.96353c-4.43854,-15.02048 -11.77725,-29.03128 -18.07214,-43.37317c-6.93301,-15.79572 -13.82791,-35.17784 -20.48178,-51.80682c-4.4082,-11.01678 -8.43365,-16.86734 -9.63846,-20.48177l0,-1.2048"/>
   <path fill="none" stroke-width="8" id="svg_25" d="m403.61444,479.85496c1.2048,-2.49537 2.40372,-12.29176 3.61441,-24.95386c1.78079,-18.62431 2.40964,-36.1831 2.40964,-56.14621c0,-22.45845 -0.06995,-43.6774 2.40961,-66.12773c2.34354,-21.2187 2.76038,-37.46217 3.61444,-49.90771c0.60391,-8.80033 2.0538,-16.98635 7.22885,-26.20156c4.73062,-8.42382 12.0481,-18.71539 18.07214,-27.44925c6.02405,-8.73385 10.84329,-17.46771 15.66254,-26.20156l2.40961,-3.74308l1.2048,-2.49539" stroke="#000000"/>
   <path fill="#ffffff" stroke="#000000" stroke-width="8" id="svg_14" d="m408.03176,179.15511c-1.01007,-1.0101 -1.51132,-1.92705 -2.02017,-6.06056c-0.49368,-4.01009 0.50406,-12.07394 1.0101,-20.20184c0.31381,-5.0407 2.02017,-11.11101 5.05045,-15.15138c3.03027,-4.04037 5.1077,-7.99744 8.08075,-10.10092c4.12289,-2.91701 8.17279,-5.85419 15.15137,-9.09084c8.19592,-3.80127 14.15045,-6.99982 22.22205,-8.08073c7.07922,-0.94803 14.14725,-1.32019 22.22202,-1.01009c13.16031,0.50542 25.60202,0.77916 38.38351,5.05046c9.43536,3.15309 18.40329,9.76254 26.26239,15.15138c8.33066,5.71216 16.39929,11.85422 23.23215,18.18166c6.2887,5.8235 11.11102,11.11104 15.15137,19.19176c4.04041,8.08075 5.54999,18.33366 9.09082,29.29268c2.65338,8.21222 4.04041,15.15138 6.06055,21.21193c2.0202,6.06055 2.54504,13.20676 4.04041,21.21194c1.52948,8.18784 3.57996,16.02707 5.05048,23.23212c1.62848,7.97916 3.87262,15.20905 7.07062,24.24222c2.88019,8.13544 5.24652,13.01862 8.08075,18.18167c2.17377,3.95987 4.39001,7.7832 6.06055,10.10092c1.32062,1.83228 3.55566,5.37738 5.05048,7.07065c2.41028,2.73026 4.04034,3.03027 5.05042,3.03027c2.0202,0 3.03033,1.0101 5.05048,1.0101c1.01013,0 2.0202,0 1.01013,0c-2.0202,0 -3.79907,-1.43021 -7.07068,-3.0303c-2.86938,-1.40338 -5.18481,-2.59543 -9.09082,-4.04034c-4.23669,-1.56726 -8.15997,-2.81799 -11.11102,-4.04037c-2.08673,-0.86435 -3.91766,-1.50854 -7.07062,-2.0202c-2.99115,-0.48541 -6.97754,-1.51132 -11.11102,-2.02017c-4.01013,-0.49368 -10.13043,-0.41293 -16.1615,-1.0101c-5.12543,-0.50751 -10.10089,-1.01007 -15.15137,-1.01007c-3.03027,0 -8.08075,0 -11.11102,0c-3.03027,0 -7.07065,0 -12.12112,0c-5.05045,0 -9.09082,0 -14.14127,0c-4.04037,0 -9.09085,0 -14.1413,0c-7.07065,0 -13.1312,0 -21.21194,0c-6.06055,0 -12.095,-0.1405 -17.17157,-1.0101c-7.03989,-1.2059 -13.14828,-1.92261 -19.19174,-3.03027c-5.0661,-0.92853 -9.21918,-2.70566 -12.12112,-4.04037c-5.35095,-2.46109 -10.4516,-6.35214 -15.15137,-9.09082c-5.5882,-3.25641 -8.08075,-7.07065 -12.12112,-11.11102c-4.04037,-4.04037 -8.36691,-9.905 -13.1312,-17.17157c-3.2294,-4.92554 -6.06055,-10.10092 -7.07065,-14.1413c-1.0101,-4.04037 -1.56265,-9.20432 -3.03027,-14.1413c-1.54996,-5.21399 -3.92053,-12.14655 -5.05048,-17.17157c-0.91367,-4.06326 -1.01007,-9.09082 -1.01007,-13.1312c0,-4.04037 1.15582,-8.01421 2.02017,-10.10092c1.22238,-2.95105 1.89661,-5.11714 3.03027,-7.07065c1.82797,-3.14996 4.04037,-4.04037 6.06055,-6.06055c1.0101,-1.0101 3.0303,-2.02019 5.05048,-2.02019l1.0101,0l1.01007,0"/>
   <path fill="none" stroke="#000000" stroke-width="8" id="svg_26" d="m424.24256,176.14686c2.40961,0 10.75574,3.79366 20.48178,8.43367c13.13913,6.26831 28.11295,12.55969 40.96353,20.48177c16.21594,9.99673 32.81589,21.37045 42.16837,30.12024c3.73267,3.49214 3.61438,4.81924 3.61438,6.02406l0,1.2048"/>
   <path transform="rotate(5 236.98 280.915)" d="m313,193c1,0 2,-3 3,-5c1,-2 1.31073,-3.08025 2,-6c0.51373,-2.17625 1,-5 1,-6c0,-1 0,-3 0,-4c0,-1 -0.77023,-3.02675 -1,-4c-0.51373,-2.17625 -3.29291,-3.29289 -4,-4c-0.70709,-0.70711 -0.85272,-1.1731 -2,-2c-1.814,-1.30745 -2.82376,-2.48626 -5,-3c-0.97324,-0.22975 -1.69345,-0.4588 -3,-1c-0.92389,-0.38268 -3,0 -4,0c-3,0 -9.11237,0.54705 -14,2c-5.16191,1.53448 -9.02675,2.77025 -10,3c-2.17625,0.51374 -2.59399,1.51301 -5,3c-2.68999,1.66251 -4.81265,2.20681 -7,4c-2.78833,2.28588 -5,5 -8,7c-3,2 -5.13464,4.81145 -8,7c-2.51308,1.91948 -5,3 -7,6c-2,3 -5.11214,6.9183 -8,11c-4.16493,5.8867 -7.34457,10.74283 -11,16c-3.32878,4.7874 -6.67122,11.2126 -10,16c-3.65543,5.25717 -7,12 -10,18c-3,6 -4.49295,11.23401 -7,16c-3.35712,6.38199 -7.35724,14.25406 -10,20c-2.43651,5.2975 -4.79393,10.08743 -7,15c-1.83203,4.07965 -3.54706,9.11237 -5,14c-1.53448,5.16193 -3.77196,10.11954 -7,16c-2.80591,5.11145 -5.16796,9.92035 -7,14c-2.20606,4.91257 -5.7702,12.74402 -11,20c-4.13453,5.73636 -8.46446,9.46448 -12,13c-3.53554,3.53552 -6.9183,8.11215 -11,11c-2.94335,2.08246 -5,4 -8,6c-3,2 -7.94341,4.14774 -13,6c-2.96933,1.08768 -5,2 -4,2c1,0 2.132,-1.75531 6,-4c3.11848,-1.80972 8.64117,-5.55038 13,-8c4.6946,-2.63834 10.82252,-5.32797 18,-9c10.75702,-5.50333 22.04135,-8.87869 31,-12c11.05304,-3.85101 20.08264,-7.69446 28,-10c9.10851,-2.6524 17.0451,-4.84842 24,-7c6.04204,-1.86917 12.96765,-4.11688 20,-6c7.96558,-2.133 16.8858,-4.32422 25,-7c6.91388,-2.27997 14.8858,-4.32422 23,-7c6.91388,-2.27997 14.08554,-4.83469 20,-8c7.10828,-3.80423 13.96838,-7.05334 19,-10c6.95706,-4.07422 13,-7 17,-10c4,-3 8.31021,-6.71899 11,-10c2.28589,-2.78833 6.4505,-6.45049 9,-9c2.5495,-2.54951 4,-6 6,-9c2,-3 2.49622,-6.90779 3,-11c0.61093,-4.96254 0.49622,-9.90779 1,-14c0.48874,-3.97003 0,-7 0,-11c0,-4 -0.09543,-7.97734 -1,-12c-1.11865,-4.97479 -1.44839,-8.80565 -3,-13c-1.43048,-3.867 -2.7695,-6.39099 -5,-10c-1.66251,-2.68999 -2.69345,-5.4588 -4,-6c-0.92389,-0.38269 -1.0535,-0.5405 -3,-1c-2.17624,-0.51375 -4,-2 -6,-3c-2,-1 -3.69345,-3.4588 -5,-4c-0.92389,-0.38269 -1.69345,-0.4588 -3,-1c-2.77164,-1.14806 -4,-1 -5,-1c-2,0 -3,-1 -4,-1c-1,0 -3,0 -6,0c-1,0 -2.08026,-0.68925 -5,0c-2.17624,0.51375 -3.02676,0.77025 -4,1c-2.17624,0.51375 -3,1 -4,1c-1,0 -2,0 -5,1l-1,0" id="svg_7" stroke-width="8" stroke="#000000" fill="#ffffff"/>
   <path fill="none" stroke="#000000" stroke-width="8" id="svg_31" d="m331.86629,222.13444c-1.2048,0 -3.61441,2.40962 -10.84326,7.22887c-10.84329,7.22887 -29.16492,18.91087 -46.98761,31.32506c-13.44672,9.36615 -19.27695,16.86734 -21.68657,22.89139l0,4.81924l0,2.40961l0,1.2048"/>
   <path d="m253,476c1,0 3,0 7,0c10,0 21.98029,0.49982 41,1c17.99377,0.47321 41.03256,-1.11191 60,0c17.08792,1.00171 28,2 37,2c8,0 16,0 30,0c16,0 30,0 42,0c11,0 21,1 30,1c8,0 13,0 18,0c5,0 12.93799,0.49829 19,1c5.97955,0.49487 10.02917,-0.59122 16,0c5.07422,0.50244 8.77026,2.02676 9,3c0.51373,2.17624 2,5 2,8c0,3 0,7 0,10c0,5 1.49347,8.87854 2,12c0.64075,3.94836 1.48627,6.82373 2,9c0.45953,1.94647 0.78986,4.07843 2,7c0.85571,2.06586 2.70709,3.29291 2,4c-0.70709,0.70709 -2,0 -9,0c-8,0 -15,0 -26,0c-11,0 -27,0 -46,0c-15,0 -29.97119,-0.49963 -43,-1c-11.99115,-0.46051 -24.02264,-0.638 -33,0c-7.05328,0.50128 -13.98828,1.09882 -22,2c-9.98691,1.12335 -24,1 -37,1c-14,0 -25,0 -33,0c-6,0 -14,0 -23,0c-10,0 -20.01224,0.44238 -28,0c-9.04153,-0.50079 -16,-1 -17,-1c-1,0 -0.31073,-2.08026 -1,-5c-0.51373,-2.17627 -2,-5 -2,-8c0,-3 0.48627,-6.82373 1,-9c0.91901,-3.89301 0,-7 0,-11c0,-2 0,-5 0,-7c0,-3 0,-5 0,-6c0,-1 -0.48627,-1.82376 -1,-4c-0.22977,-0.97324 0.29291,-2.29291 1,-3c0.70709,-0.70709 1.29291,-1.29291 2,-2c0.70709,-0.70709 0.82376,-2.48627 3,-3c1.9465,-0.4595 3,0 5,0c3,0 5,0 6,0l1,0l1,0" id="svg_9" stroke-width="12" stroke="#000" fill="#ffffff"/>
  </g>
 </g>

</svg>