<svg width="800" height="800" xmlns="http://www.w3.org/2000/svg">

 <g>
  <title>Layer 1</title>
  <g id="svg_41">
   <path d="m230.4886,446.33728c1.21951,1.21951 14.65556,3.39377 46.34123,6.09753c39.05341,3.33246 91.45029,5.48773 135.3652,6.09753c29.26532,0.40637 51.25931,-2.50772 71.95087,-1.21951c19.62595,1.22186 36.89078,2.30682 45.12173,4.87802c2.60284,0.81308 7.27222,2.63464 12.19507,3.65854c7.26251,1.51053 9.87622,1.22543 9.75604,2.439c-0.61273,6.18802 -1.58972,17.20105 -3.65857,28.04865c-2.60492,13.65833 -6.79102,24.12518 -9.75604,32.9267c-1.60522,4.76501 -1.21948,6.09753 -2.43896,6.09753c-6.09753,0 -21.75,-3.59821 -53.65829,-8.53656c-41.258,-6.38538 -84.15469,-8.19452 -128.04816,-7.31702c-30.50592,0.60986 -57.29272,1.82904 -80.4874,2.43896c-17.0672,0.44879 -28.04865,0 -35.36569,0c-6.09752,0 -9.2509,1.72467 -10.97556,0c-0.8623,-0.8623 0.09846,-3.63965 1.21951,-9.75604c1.33733,-7.29642 1.21951,-17.07309 1.21951,-25.60962c0,-7.31705 -3.03201,-15.63864 -3.65852,-18.2926c-0.84055,-3.56064 -1.21951,-8.53653 -1.21951,-10.97556l-1.2195,0" id="svg_33" stroke-width="12" stroke="#000000" fill="#ffffff"/>
   <path d="m248.78119,525.60516c0,1.21954 0.30096,4.83423 1.21951,12.19507c1.81837,14.57178 1.21951,31.70715 1.21951,54.87781c0,19.51208 -0.68199,35.38684 0,46.34125c0.61093,9.81299 1.82127,15.70544 2.43901,19.51208c0.19534,1.20374 1.40517,0.28607 3.65852,1.21948c1.59335,0.66003 3.72452,0.52771 7.31702,1.21954c6.44873,1.24188 20.73163,3.65851 56.09729,3.65851c42.68271,0 84.38052,2.36865 108.53604,-1.21954c9.94717,-1.4776 10.99384,-3.36053 13.41458,-3.65851c4.99048,-0.61432 13.35767,-1.82806 23.17062,-2.43896c7.30289,-0.45465 8.53653,0 9.75604,0c2.43903,0 5.95303,-2.67108 9.75604,-4.87805c4.71704,-2.73743 7.10294,-2.55841 8.53656,-4.87805c0.64111,-1.03735 0.82883,-2.47046 1.21951,-4.87799c0.61771,-3.80658 3.04578,-6.00702 3.65851,-12.19507c0.48068,-4.85431 0,-13.41455 0,-25.60962c0,-13.41461 -1.04825,-24.41052 -2.43903,-35.36572c-1.086,-8.5545 -1.21948,-15.85358 -1.21948,-23.17059l-1.21951,-1.21948" id="svg_34" stroke-width="12" stroke="#000000" fill="#ffffff"/>
   <path d="m260.97626,403.65457c0,1.21951 -3.10266,8.3743 -4.87802,17.07309c-1.96609,9.63339 -2.43901,14.63406 -2.43901,15.85358l0,1.21951l0,2.439" id="svg_35" stroke-width="12" stroke="#000000" fill="#ffffff"/>
   <path d="m502.43848,417.06915c0,2.439 0.86624,7.51535 -1.21951,14.63406c-2.61142,8.91278 -3.65851,14.63406 -3.65851,18.2926l1.21951,0" id="svg_36" stroke-width="12" stroke="#000000" fill="#ffffff"/>
   <path d="m226.83008,385.36197c1.21951,0 12.12265,0.83038 35.36569,2.43903c36.51813,2.5274 84.22504,2.83014 126.82864,7.31705c48.88947,5.1489 86.9487,10.43457 114.63358,17.07309c16.12985,3.86777 19.86929,6.45468 20.7316,7.31702c1.72467,1.72464 3.70575,-0.58603 7.31702,0c3.8067,0.61774 7.40991,1.97235 8.53656,2.43903c1.59338,0.66 2.43903,1.21951 3.65851,1.21951c1.21954,0 1.21954,-1.21951 1.21954,-4.87805c0,-7.31702 -0.17126,-15.87396 1.21948,-26.82913c1.086,-8.55453 1.71802,-15.88919 2.43903,-23.17062c0.61273,-6.18799 1.21948,-9.75604 1.21948,-12.19504c0,-1.21951 -1.21948,-1.21951 -4.87799,-1.21951c-8.53656,0 -19.50378,-0.1138 -35.36569,-1.21951c-19.50287,-1.35953 -51.18015,-3.06833 -85.36545,-4.87802c-35.33719,-1.87067 -60.98792,-1.05438 -78.04837,-2.43903c-13.42575,-1.08963 -21.95111,-4.87799 -31.70718,-7.31702c-14.63406,-3.65851 -35.33054,-9.14584 -51.21924,-9.75604c-10.96748,-0.4212 -18.2926,0 -24.39014,0c-6.09753,0 -12.24956,-0.29102 -19.5121,1.21948c-4.92281,1.02386 -6.09753,1.21951 -6.09753,2.43903c0,1.21951 2.13705,6.2052 4.87804,13.41455c3.3006,8.68121 4.87802,17.07309 7.31703,20.73163l1.2195,1.21948l0,1.21951" id="svg_37" stroke-width="12" stroke="#000000" fill="#ffffff"/>
   <path d="m258.53723,304.87457c0,2.43903 1.21951,6.09753 1.21951,12.19507c0,7.31702 0,10.97556 1.21951,12.19507l0,1.21948" id="svg_38" stroke-width="12" stroke="#000000" fill="#ffffff"/>
   <path d="m504.8775,319.50864c0,1.21951 -0.43225,3.67389 0,9.75607c0.6113,8.6015 2.439,15.85358 3.65851,20.7316l1.21951,1.21951l0,1.21948" id="svg_39" stroke-width="12" stroke="#000000" fill="#ffffff"/>
   <path d="m217.07404,289.021c0,1.21951 12.20215,3.53702 34.14618,4.87802c36.59811,2.23648 88.95193,6.12268 141.46271,8.53653c54.83344,2.52063 107.31656,2.43903 140.24323,2.43903c13.41455,0 15.85358,0 15.85358,-1.21951c0,-2.439 0.43811,-9.8302 -1.21954,-18.29257c-1.93317,-9.86874 -5.84613,-20.83829 -8.5365,-26.82916c-1.11713,-2.48758 -1.57672,-4.01569 -2.43903,-4.87801c-0.8623,-0.8623 -2.59601,-0.15933 -6.09753,-1.21951c-4.20831,-1.27419 -9.75604,-2.43901 -17.07306,-2.43901c-6.09756,0 -18.2926,0 -35.36569,0c-30.48767,0 -74.38989,0 -124.38965,0c-40.24368,0 -71.9223,-1.82896 -91.46295,-2.43901c-15.84587,-0.49471 -26.85271,-0.46175 -39.0242,-1.21951c-9.81299,-0.61093 -14.26021,-3.099 -15.85358,-2.43901c-1.12668,0.46669 -0.00002,2.43901 1.2195,8.53654c1.2195,6.09752 2.43901,13.41457 2.43901,18.29259l0,3.65854l0,1.21948" id="svg_40" stroke-width="12" stroke="#000000" fill="#ffffff"/>
  </g>
 </g>
</svg>