<svg width="800" height="800" xmlns="http://www.w3.org/2000/svg">
 <g>
  <title>Layer 1</title>
  <path d="m263.21838,288.50574c0,1.14944 1.14944,3.44827 2.29886,9.1954c1.14941,5.74713 2.29016,12.4317 3.44827,21.83908c0.84265,6.84488 -0.22281,14.97754 1.14941,22.98853c0.98953,5.77679 1.14944,10.34482 1.14944,11.49423c0,4.59772 1.14941,6.89655 2.29886,6.89655c1.14941,0 5.7471,0 16.09195,0c11.49423,0 21.85193,-0.51532 32.1839,0c11.53726,0.57544 23.00848,0.50665 33.33334,1.14944c9.24905,0.57581 17.17004,1.72217 24.13791,2.29886c8.01859,0.66364 13.80865,-0.49994 21.83908,0c9.24905,0.57581 17.26138,1.65601 27.58621,2.29883c9.24905,0.57584 17.24139,1.14944 25.28735,1.14944c5.74713,0 9.22986,-0.56177 13.79312,0c4.70367,0.57904 9.33115,0.43149 17.24136,2.29883c7.07513,1.67023 13.79312,3.4483 19.54022,3.4483c1.14944,0 1.14944,1.14941 2.29886,1.14941c3.44827,0 6.75696,1.71661 10.34485,2.29886c1.13458,0.18411 2.29883,0 4.59766,0c2.29889,0 3.4483,0 5.74713,0c1.14948,0 1.14948,-1.14944 1.14948,-3.44827c0,-2.29886 0,-5.74713 0,-10.34485c0,-4.59769 -1.28619,-12.89127 -3.4483,-19.54022c-1.5896,-4.8884 -3.41669,-7.64081 -4.59772,-12.64368c-0.79224,-3.35602 0.1756,-8.09348 -1.14941,-12.64368c-1.01624,-3.48984 -1.67676,-5.39478 -2.29883,-6.89655c-0.43988,-1.06195 0,-2.29886 0,-3.44827c0,-1.14944 0,-2.29886 -1.14941,-2.29886c-1.14948,0 -3.4483,0 -9.19543,0c-5.74713,0 -14.94254,0 -19.54022,0c-2.29886,0 -5.74713,0 -9.1954,0c-4.59769,0 -10.34482,-1.14944 -16.09195,-1.14944c-6.89655,0 -12.64368,-1.14941 -18.39081,-1.14941c-4.59769,0 -8.04599,0 -10.34482,0c-3.44827,0 -6.92456,-0.5831 -12.64368,-1.14941c-5.83243,-0.57755 -11.42294,-1.7222 -18.39081,-2.29886c-4.58206,-0.37921 -9.21219,0.33978 -12.64368,0c-5.83243,-0.57751 -11.49426,-1.14941 -18.39081,-1.14941c-5.74713,0 -10.3728,-0.58313 -16.09195,-1.14944c-5.83243,-0.57751 -11.4682,-2.40854 -16.09195,-3.44827c-5.71817,-1.28583 -10.37381,-2.16248 -16.09198,-3.44827c-4.62372,-1.0397 -9.08942,-1.71979 -13.79309,-2.29886c-3.42242,-0.42133 -8.10748,0.52817 -10.34482,0c-2.50143,-0.59052 -6.98883,-0.35718 -10.34485,-1.14941c-2.5014,-0.59052 -4.62845,-0.88531 -5.74713,-1.14941c-2.50143,-0.59052 -3.53577,-0.70959 -4.59769,-1.14944c-1.50177,-0.62207 -3.44827,-1.14941 -4.59769,-1.14941c-1.14944,0 -3.4483,-1.14944 -4.59772,-1.14944l-1.14941,0" id="svg_21" stroke-width="12" stroke="#000000" fill="#ffffff"/>
  <path d="m258.6207,387.35632c0,1.14941 0,3.44827 0,10.34482c0,6.89655 0,14.94254 0,21.83908c0,8.04599 0,14.94254 0,21.83908c0,3.44827 -0.55234,6.94107 0,10.34485c0.58221,3.58786 1.14941,5.7471 1.14941,10.34482c0,3.44827 0,5.74713 0,6.89655c0,1.14941 -0.81274,2.63553 0,3.44827c0.81274,0.81274 4.62085,0.65186 13.79312,0c8.10721,-0.57614 19.40845,-3.44492 34.48276,-4.59769c17.19116,-1.31464 32.13617,-0.57385 42.52872,-1.14944c5.73834,-0.31781 10.34482,-1.14941 19.54022,-1.14941c10.34485,0 21.79135,-0.57382 32.18393,-1.14941c6.88599,-0.38138 12.64368,0 18.39081,0c4.59769,0 9.1954,0 13.79309,0c3.44827,0 10.2735,-0.57275 17.24139,-1.14944c8.01855,-0.66364 12.64368,0 13.79309,0c3.44827,0 8.04599,0 12.64368,0c2.29886,0 5.74713,0 9.1954,0c2.29886,0 4.59769,0 5.74713,0c3.44827,0 4.59769,0 6.89655,0c1.14941,0 3.24567,0.55893 5.74713,1.14944c2.23737,0.52817 3.44827,0 6.89655,0c1.14941,0 2.29883,0 3.4483,0c2.29883,0 2.03473,-1.18021 2.29883,-2.29886c0.59052,-2.50143 1.14941,-4.59772 1.14941,-8.04599c0,-3.44827 0,-5.74713 0,-8.04596c0,-1.14944 -1.14941,-4.59772 -1.14941,-6.89655c0,-4.59772 0,-8.04599 0,-12.64371c0,-4.59769 0,-8.04596 0,-11.49423c0,-3.44827 0,-6.89655 0,-9.1954c0,-2.29886 0.81281,-3.78494 0,-4.59772c-0.81274,-0.81274 -2.29883,0 -3.4483,0c-3.44824,0 -6.79053,-0.57037 -11.49423,-1.14941c-5.70407,-0.70221 -13.82666,-0.46982 -20.68967,-1.14941c-5.8324,-0.57755 -10.37927,-1.73709 -14.9425,-2.29886c-4.7037,-0.57904 -8.10535,-0.41293 -12.64368,-1.14941c-3.58786,-0.58224 -8.04599,-2.29886 -11.49426,-2.29886c-4.59769,0 -7.98123,-1.36594 -11.49426,-2.29886c-5.66461,-1.5043 -7.90637,-1.71661 -11.49423,-2.29886c-4.53836,-0.73648 -9.05582,-0.5672 -12.64368,-1.14941c-4.53836,-0.73648 -7.84341,-0.5589 -10.34485,-1.14941c-5.59338,-1.3204 -11.49423,0 -17.24136,0c-5.74713,0 -12.64368,0 -17.24139,0c-3.44827,0 -6.91891,0.45306 -11.49423,0c-5.83243,-0.57755 -12.64368,-1.14944 -17.24139,-1.14944c-5.74713,0 -10.25952,-0.5719 -16.09195,-1.14941c-5.71918,-0.56631 -9.22986,0.56177 -13.79312,0c-4.70367,-0.57907 -10.23883,-1.71982 -14.9425,-2.29886c-5.70407,-0.70221 -9.1954,0 -12.64368,0c-1.14944,0 -3.44827,0 -5.74713,0c-1.14944,0 -2.29886,0 -3.44827,0l-1.14944,0" id="svg_23" stroke-width="12" stroke="#000000" fill="#ffffff"/>
  <path d="m251,525c0,1 -1.39851,5.00995 -1,13c0.50061,10.03741 2.49976,21.97656 3,38c0.49927,15.99219 1.49963,30.97119 2,44c0.53726,13.98969 0,25 0,35c0,8 0,14 0,17c0,3 0,5 0,7c0,1 1,1 2,1c3,0 8.00919,-0.66821 14,-1c9.04153,-0.50079 19,-1 34,-1c14,0 30,0 44,0c15,0 28,0 42,0c10,0 18,0 25,0c9,0 21,0 29,0c10,0 18.94672,-0.49872 26,-1c5.98489,-0.42535 13.17157,1.82843 16,-1c0.70709,-0.70709 1.07611,-0.61731 2,-1c1.30655,-0.5412 2.18835,-2.94366 3,-6c1.30875,-4.92822 3.34683,-10.9101 5,-18c2.53882,-10.88824 4.82336,-22.02838 7,-35c1.85019,-11.02618 3.70856,-20.04187 5,-28c1.63354,-10.06635 3.49921,-18.9585 4,-28c0.38708,-6.98932 0,-12 0,-16c0,-4 0,-7 0,-9l0,-1" id="svg_8" stroke-width="12" stroke="#000000" fill="#ffffff"/>
  <path fill="#ffffff" stroke="#000000" stroke-width="12" id="svg_33" d="m230.4886,446.33728c1.21951,1.21951 14.65556,3.39377 46.34123,6.09753c39.05341,3.33246 91.45029,5.48773 135.3652,6.09753c29.26532,0.40637 51.25931,-2.50772 71.95087,-1.21951c19.62595,1.22186 36.89078,2.30682 45.12173,4.87802c2.60284,0.81308 7.27222,2.63464 12.19507,3.65854c7.26251,1.51053 9.87622,1.22543 9.75604,2.439c-0.61273,6.18802 -1.58972,17.20105 -3.65857,28.04865c-2.60492,13.65833 -6.79102,24.12518 -9.75604,32.9267c-1.60522,4.76501 -1.21948,6.09753 -2.43896,6.09753c-6.09753,0 -21.75,-3.59821 -53.65829,-8.53656c-41.258,-6.38538 -84.15469,-8.19452 -128.04816,-7.31702c-30.50592,0.60986 -57.29272,1.82904 -80.4874,2.43896c-17.0672,0.44879 -28.04865,0 -35.36569,0c-6.09752,0 -9.2509,1.72467 -10.97556,0c-0.8623,-0.8623 0.09846,-3.63965 1.21951,-9.75604c1.33733,-7.29642 1.21951,-17.07309 1.21951,-25.60962c0,-7.31705 -3.03201,-15.63864 -3.65852,-18.2926c-0.84055,-3.56064 -1.21951,-8.53653 -1.21951,-10.97556l-1.2195,0"/>
  <path stroke="#000000" d="m234.4359,300.23344c2,0 3.00621,-0.34662 8,0c10.0374,0.69672 27,4.17523 52,4.17523c25,0 48.05457,0.17703 71,2.78349c25.09592,2.85077 49.00519,4.87157 73,5.56698c24.01563,0.69604 45.97919,3.47911 64,4.17523c13.99463,0.54059 22.96259,2.08677 33,2.78349c6.99133,0.48529 10.58582,1.96823 12,0c0.70709,-0.98409 0.41241,-5.59068 0,-12.5257c-0.50171,-8.43681 -0.85126,-16.88709 -2,-23.65966c-0.51373,-3.02877 -1.90283,-3.09554 -4,-4.17523c-3.867,-1.99086 -8.05603,-2.26018 -16,-4.17523c-9.08429,-2.18993 -18,-4.17523 -31,-4.17523c-13,0 -28.00827,-0.7468 -41,-1.39174c-14.02676,-0.6963 -31.00589,-0.76977 -48,-1.39174c-19.01971,-0.69613 -37,-4.17523 -53,-4.17523c-15,0 -28.02914,-0.00718 -45,-1.39174c-17.08792,-1.39412 -32.0058,-5.42835 -50,-6.95872c-15.00531,-1.27618 -26,-1.39174 -28,-1.39174c-1,0 -1,1.39174 -1,2.78349c0,2.78349 -1,6.95872 -1,11.13396c0,1.39174 0,4.17523 0,6.95872c0,4.17523 0,6.95872 0,9.74221c0,1.39174 0.4588,3.7486 1,5.56698c0.76537,2.57159 -0.70711,4.58289 0,5.56698c0.70711,0.98409 1,1.39174 1,2.78349l0,1.39174" id="svg_11" stroke-width="12" fill="#ffffff"/>
  <path stroke="#000000" d="m278.82002,344.43271c0.93457,0 1.89723,-0.55459 8.41118,0c15.14844,1.28973 31.79715,2.34521 54.20526,4.28067c17.77615,1.53538 30.76462,2.91966 43.92499,5.13677c12.08966,2.03672 22.43234,2.53568 35.51379,3.42454c12.15195,0.82571 23.32077,2.87596 36.44836,4.28065c10.25302,1.09711 21.41687,1.31338 31.77551,2.56842c11.15662,1.35174 19.69849,0.88945 25.23349,1.71226c5.83444,0.86734 10.2305,2.13923 16.82233,2.56839c11.18668,0.72829 18.6915,0.85613 20.56064,0.85613c0.93457,0 1.86914,0 1.86914,0.85616c0,2.56839 -0.68512,6.0314 0,11.12971c0.47083,3.50349 0.93457,6.84906 0.93457,9.41745c0,2.56842 0,5.99293 0,9.41748c0,3.42452 0,5.13677 0,7.70519c0,2.56839 0.93457,3.42452 0.93457,5.9929c0,1.71229 0,2.56842 0,5.1368c0,1.71226 0.42877,2.30594 0.93457,3.42454c0.71527,1.58193 0,2.56839 -0.93457,2.56839c-2.80371,0 -6.38513,-0.5145 -12.14948,-1.71226c-7.34808,-1.52683 -17.78253,-2.30389 -29.90634,-3.42454c-7.4967,-0.69295 -13.08401,-0.85613 -18.69147,-0.85613c-2.80374,0 -7.45871,-0.96108 -13.08405,-1.71226c-7.45596,-0.99563 -15.93964,-1.29328 -26.16806,-2.56842c-10.35342,-1.29074 -18.53775,-3.41937 -27.10263,-4.28065c-5.57397,-0.56052 -10.23669,-1.28336 -17.7569,-1.71226c-8.3949,-0.47878 -16.82233,-0.85613 -23.36435,-0.85613c-8.41116,0 -16.84113,-1.22677 -24.29892,-1.71229c-6.59183,-0.42915 -12.09967,-1.2831 -18.69147,-1.71226c-5.59335,-0.36416 -13.17804,-1.18814 -20.56064,-2.56839c-6.66638,-1.24637 -12.99786,-2.99324 -16.82233,-3.42454c-3.71027,-0.41842 -7.45541,-0.93784 -11.21487,-1.71226c-4.64932,-0.95772 -10.21097,-2.13823 -14.95319,-2.56839c-3.72011,-0.33743 -6.54202,0 -8.41116,0c-2.80373,0 -9.36676,-2.25461 -12.14946,-2.56842c-3.82448,-0.43131 -6.61533,-0.6762 -9.34575,-1.71226c-1.93069,-0.73259 -7.40723,-1.2821 -12.14944,-1.71226c-4.65015,-0.4218 -6.54202,0 -6.54202,-0.85613c0,-2.56839 0.53706,-6.00585 0.93457,-11.12973c0.46846,-6.03853 0.93457,-10.27358 0.93457,-15.41038c0,-5.13677 0,-9.41745 0,-12.84197c0,-0.85613 -0.13763,-1.86048 0.93459,-2.56842c1.69531,-1.11934 2.14287,-1.1069 2.80371,-1.71226c0.66086,-0.60539 3.7383,0 7.47659,0c4.67287,0 11.21489,0 17.7569,0c5.60745,0 10.21097,0.42597 14.95319,0.85613c3.72011,0.33743 6.54202,0 7.47659,0l0.93457,0l0,0.85613" id="svg_19" stroke-width="12" fill="#ffffff"/>
 </g>

</svg>