<svg width="640" height="640" xmlns="http://www.w3.org/2000/svg">
 <g>
  <title>Layer 1</title>
  <path id="svg_1" stroke-width="12" stroke="#000" fill="#CC7C65" d="m199.22,215.51c0,1.1494 1.1494,3.4483 2.2989,9.1954c1.1494,5.7471 2.2902,12.432 3.4483,21.839c0.84265,6.8449 -0.22281,14.978 1.1494,22.989c0.98953,5.7768 1.1494,10.345 1.1494,11.494c0,4.5977 1.1494,6.8966 2.2989,6.8966l16.092,0c11.494,0 21.852,-0.51532 32.184,0c11.537,0.57544 23.008,0.50665 33.333,1.1494c9.249,0.57581 17.17,1.7222 24.138,2.2989c8.0186,0.66364 13.809,-0.49994 21.839,0c9.249,0.57581 17.261,1.656 27.586,2.2988c9.249,0.57584 17.241,1.1494 25.287,1.1494c5.7471,0 9.2299,-0.56177 13.793,0c4.7037,0.57904 9.3312,0.43149 17.241,2.2988c7.0751,1.6702 13.793,3.4483 19.54,3.4483c1.1494,0 1.1494,1.1494 2.2989,1.1494c3.4483,0 6.757,1.7166 10.345,2.2989c1.1346,0.18411 2.2988,0 4.5977,0l5.7471,0c1.1495,0 1.1495,-1.1494 1.1495,-3.4483l0,-10.345c0,-4.5977 -1.2862,-12.891 -3.4483,-19.54c-1.5896,-4.8884 -3.4167,-7.6408 -4.5977,-12.644c-0.79224,-3.356 0.1756,-8.0935 -1.1494,-12.644c-1.0162,-3.4898 -1.6768,-5.3948 -2.2988,-6.8966c-0.43988,-1.062 0,-2.2989 0,-3.4483c0,-1.1494 0,-2.2989 -1.1494,-2.2989l-9.1954,0l-19.54,0l-9.1954,0c-4.5977,0 -10.345,-1.1494 -16.092,-1.1494c-6.8966,0 -12.644,-1.1494 -18.391,-1.1494l-10.345,0c-3.4483,0 -6.9246,-0.5831 -12.644,-1.1494c-5.8324,-0.57755 -11.423,-1.7222 -18.391,-2.2989c-4.5821,-0.37921 -9.2122,0.33978 -12.644,0c-5.8324,-0.57751 -11.494,-1.1494 -18.391,-1.1494c-5.7471,0 -10.373,-0.58313 -16.092,-1.1494c-5.8324,-0.57751 -11.468,-2.4085 -16.092,-3.4483c-5.7182,-1.2858 -10.374,-2.1625 -16.092,-3.4483c-4.6237,-1.0397 -9.0894,-1.7198 -13.793,-2.2989c-3.4224,-0.42133 -8.1075,0.52817 -10.345,0c-2.5014,-0.59052 -6.9888,-0.35718 -10.345,-1.1494c-2.5014,-0.59052 -4.6284,-0.88531 -5.7471,-1.1494c-2.5014,-0.59052 -3.5358,-0.70959 -4.5977,-1.1494c-1.5018,-0.62207 -3.4483,-1.1494 -4.5977,-1.1494c-1.1494,0 -3.4483,-1.1494 -4.5977,-1.1494l-1.1494,0"/>
  <path id="svg_2" stroke-width="12" stroke="#000" fill="#894F3F" d="m194.62,314.36l0,10.345l0,21.839l0,21.839c0,3.4483 -0.55234,6.9411 0,10.345c0.58221,3.5879 1.1494,5.7471 1.1494,10.345l0,6.8966c0,1.1494 -0.81274,2.6355 0,3.4483s4.6208,0.65186 13.793,0c8.1072,-0.57614 19.408,-3.4449 34.483,-4.5977c17.191,-1.3146 32.136,-0.57385 42.529,-1.1494c5.7383,-0.31781 10.345,-1.1494 19.54,-1.1494c10.345,0 21.791,-0.57382 32.184,-1.1494c6.886,-0.38138 12.644,0 18.391,0l13.793,0c3.4483,0 10.274,-0.57275 17.241,-1.1494c8.0186,-0.66364 12.644,0 13.793,0l12.644,0l9.1954,0l5.7471,0l6.8966,0c1.1494,0 3.2457,0.55893 5.7471,1.1494c2.2374,0.52817 3.4483,0 6.8966,0l3.4483,0c2.2988,0 2.0347,-1.1802 2.2988,-2.2989c0.59052,-2.5014 1.1494,-4.5977 1.1494,-8.046l0,-8.046c0,-1.1494 -1.1494,-4.5977 -1.1494,-6.8966l0,-12.644l0,-11.494l0,-9.1954c0,-2.2989 0.81281,-3.7849 0,-4.5977c-0.81274,-0.81274 -2.2988,0 -3.4483,0c-3.4482,0 -6.7905,-0.57037 -11.494,-1.1494c-5.7041,-0.70221 -13.827,-0.46982 -20.69,-1.1494c-5.8324,-0.57755 -10.379,-1.7371 -14.942,-2.2989c-4.7037,-0.57904 -8.1054,-0.41293 -12.644,-1.1494c-3.5879,-0.58224 -8.046,-2.2989 -11.494,-2.2989c-4.5977,0 -7.9812,-1.3659 -11.494,-2.2989c-5.6646,-1.5043 -7.9064,-1.7166 -11.494,-2.2989c-4.5384,-0.73648 -9.0558,-0.5672 -12.644,-1.1494c-4.5384,-0.73648 -7.8434,-0.5589 -10.345,-1.1494c-5.5934,-1.3204 -11.494,0 -17.241,0l-17.241,0c-3.4483,0 -6.9189,0.45306 -11.494,0c-5.8324,-0.57755 -12.644,-1.1494 -17.241,-1.1494c-5.7471,0 -10.26,-0.5719 -16.092,-1.1494c-5.7192,-0.56631 -9.2299,0.56177 -13.793,0c-4.7037,-0.57907 -10.239,-1.7198 -14.942,-2.2989c-5.7041,-0.70221 -9.1954,0 -12.644,0l-5.7471,0l-3.4483,0l-1.1494,0"/>
  <path stroke="#000" id="svg_3" stroke-width="12" fill="#CC7C65" d="m187,444.00001c0,1.05161 -1.3985,5.26858 -1,13.67097c0.50061,10.55504 2.4998,23.1113 3,39.96129c0.49927,16.81739 1.4996,32.5695 2,46.27097c0.53726,14.71206 0,26.29032 0,36.80645l0,17.87742l0,7.36129c0,1.05161 1,1.05161 2,1.05161c3,0 8.0092,-0.7027 14,-1.05161c9.0415,-0.52664 19,-1.05161 34,-1.05161l44,0l42,0l25,0l29,0c10,0 18.947,-0.52446 26,-1.05161c5.9849,-0.4473 13.172,1.92277 16,-1.05161c0.70709,-0.74358 1.0761,-0.64917 2,-1.05161c1.3066,-0.56913 2.1884,-3.09563 3,-6.30968c1.3088,-5.18256 3.3468,-11.4731 5,-18.92903c2.5388,-11.44996 4.8234,-23.16493 7,-36.80645c1.8502,-11.59508 3.7086,-21.07642 5,-29.44516c1.6335,-10.58553 3.4992,-19.93648 4,-29.44516c0.38708,-7.35004 0,-12.61935 0,-16.82581l0,-9.46452l0,-1.05161"/>
  <path id="svg_4" stroke-width="12" stroke="#000" fill="#CC7C65" d="m166.49,373.34c1.2195,1.2195 14.656,3.3938 46.341,6.0975c39.053,3.3325 91.45,5.4877 135.37,6.0975c29.265,0.40637 51.259,-2.5077 71.951,-1.2195c19.626,1.2219 36.891,2.3068 45.122,4.878c2.6028,0.81308 7.2722,2.6346 12.195,3.6585c7.2625,1.5105 9.8762,1.2254 9.756,2.439c-0.61273,6.188 -1.5897,17.201 -3.6586,28.049c-2.6049,13.658 -6.791,24.125 -9.756,32.927c-1.6052,4.765 -1.2195,6.0975 -2.439,6.0975c-6.0975,0 -21.75,-3.5982 -53.658,-8.5366c-41.258,-6.3854 -84.155,-8.1945 -128.05,-7.317c-30.506,0.60986 -57.293,1.829 -80.487,2.439c-17.067,0.44879 -28.049,0 -35.366,0c-6.0975,0 -9.2509,1.7247 -10.976,0c-0.8623,-0.8623 0.09846,-3.6396 1.2195,-9.756c1.3373,-7.2964 1.2195,-17.073 1.2195,-25.61c0,-7.317 -3.032,-15.639 -3.6585,-18.293c-0.84055,-3.5606 -1.2195,-8.5365 -1.2195,-10.976l-1.2195,0"/>
  <path id="svg_5" stroke-width="12" stroke="#000" fill="#CC7C65" d="m170.44,227.23c2,0 3.0062,-0.34662 8,0c10.037,0.69672 27,4.1752 52,4.1752s48.055,0.17703 71,2.7835c25.096,2.8508 49.005,4.8716 73,5.567c24.016,0.69604 45.979,3.4791 64,4.1752c13.995,0.54059 22.963,2.0868 33,2.7835c6.9913,0.48529 10.586,1.9682 12,0c0.70709,-0.98409 0.41241,-5.5907 0,-12.526c-0.50171,-8.4368 -0.85126,-16.887 -2,-23.66c-0.51373,-3.0288 -1.9028,-3.0955 -4,-4.1752c-3.867,-1.9909 -8.056,-2.2602 -16,-4.1752c-9.0843,-2.1899 -18,-4.1752 -31,-4.1752s-28.008,-0.7468 -41,-1.3917c-14.027,-0.6963 -31.006,-0.76977 -48,-1.3917c-19.02,-0.69613 -37,-4.1752 -53,-4.1752c-15,0 -28.029,-0.00718 -45,-1.3917c-17.088,-1.3941 -32.006,-5.4284 -50,-6.9587c-15.005,-1.2762 -26,-1.3917 -28,-1.3917c-1,0 -1,1.3917 -1,2.7835c0,2.7835 -1,6.9587 -1,11.134l0,6.9587l0,9.7422c0,1.3917 0.4588,3.7486 1,5.567c0.76537,2.5716 -0.70711,4.5829 0,5.567s1,1.3917 1,2.7835l0,1.3917"/>
  <path id="svg_6" stroke-width="12" stroke="#000" fill="#8B4D4B" d="m214.82,271.43c0.93457,0 1.8972,-0.55459 8.4112,0c15.148,1.2897 31.797,2.3452 54.205,4.2807c17.776,1.5354 30.765,2.9197 43.925,5.1368c12.09,2.0367 22.432,2.5357 35.514,3.4245c12.152,0.82571 23.321,2.876 36.448,4.2806c10.253,1.0971 21.417,1.3134 31.776,2.5684c11.157,1.3517 19.698,0.88945 25.233,1.7123c5.8344,0.86734 10.23,2.1392 16.822,2.5684c11.187,0.72829 18.692,0.85613 20.561,0.85613c0.93457,0 1.8691,0 1.8691,0.85616c0,2.5684 -0.68512,6.0314 0,11.13c0.47083,3.5035 0.93457,6.8491 0.93457,9.4174l0,9.4175l0,7.7052c0,2.5684 0.93457,3.4245 0.93457,5.9929l0,5.1368c0,1.7123 0.42877,2.3059 0.93457,3.4245c0.71527,1.5819 0,2.5684 -0.93457,2.5684c-2.8037,0 -6.3851,-0.5145 -12.149,-1.7123c-7.3481,-1.5268 -17.783,-2.3039 -29.906,-3.4245c-7.4967,-0.69295 -13.084,-0.85613 -18.691,-0.85613c-2.8037,0 -7.4587,-0.96108 -13.084,-1.7123c-7.456,-0.99563 -15.94,-1.2933 -26.168,-2.5684c-10.353,-1.2907 -18.538,-3.4194 -27.103,-4.2806c-5.574,-0.56052 -10.237,-1.2834 -17.757,-1.7123c-8.3949,-0.47878 -16.822,-0.85613 -23.364,-0.85613c-8.4112,0 -16.841,-1.2268 -24.299,-1.7123c-6.5918,-0.42915 -12.1,-1.2831 -18.691,-1.7123c-5.5934,-0.36416 -13.178,-1.1881 -20.561,-2.5684c-6.6664,-1.2464 -12.998,-2.9932 -16.822,-3.4245c-3.7103,-0.41842 -7.4554,-0.93784 -11.215,-1.7123c-4.6493,-0.95772 -10.211,-2.1382 -14.953,-2.5684c-3.7201,-0.33743 -6.542,0 -8.4112,0c-2.8037,0 -9.3668,-2.2546 -12.149,-2.5684c-3.8245,-0.43131 -6.6153,-0.6762 -9.3458,-1.7123c-1.9307,-0.73259 -7.4072,-1.2821 -12.149,-1.7123c-4.6502,-0.4218 -6.542,0 -6.542,-0.85613c0,-2.5684 0.53706,-6.0058 0.93457,-11.13c0.46846,-6.0385 0.93457,-10.274 0.93457,-15.41l0,-12.842c0,-0.85613 -0.13763,-1.8605 0.93459,-2.5684c1.6953,-1.1193 2.1429,-1.1069 2.8037,-1.7123c0.66086,-0.60539 3.7383,0 7.4766,0l17.757,0c5.6074,0 10.211,0.42597 14.953,0.85613c3.7201,0.33743 6.542,0 7.4766,0l0.93457,0l0,0.85613"/>
 </g>

</svg>