<?xml version="1.0" encoding="UTF-8"?>
<svg viewBox="80 80 640 640" xmlns="http://www.w3.org/2000/svg">
<g>
<title>Layer 1</title>
<path d="m184.78 404.35c7.6087 0 20.476 1.488 51.087 4.3478 48.749 4.5544 115.2 7.1103 186.96 8.6956 78.249 1.7289 135.87 1.0869 164.13 1.0869 7.6087 0 7.4464 0.51547 6.5217 1.0869-4.135 2.5556-3.2609 9.7826-3.2609 20.652 0 14.13 3.8038 28.224 4.3478 40.217 0.39404 8.6867 0 15.217 0 19.565 0 1.0869 0 2.1739-1.087 2.1739s-7.6087 1.087-21.739 1.087c-27.174 0-64.12-0.12463-103.26-3.2609-42.381-3.3958-81.497-5.9629-122.83-7.6087-40.2-1.6009-77.188-2.4236-97.826-1.0869-14.143 0.91599-19.565 1.0869-20.652 1.0869h-5.4348c-4.3478 0-7.6748-0.69641-15.217-2.1739-8.7961-1.723-16.941-2.8106-18.478-4.3478-0.76859-0.76859 0-2.1739 0-7.6087 0-8.6956 3.8038-20.615 4.3478-32.609 0.59106-13.03 1.0869-23.913 1.0869-30.435v-5.4348-4.3478l-1.0869-3.2609" fill="#fff" stroke="#000" stroke-width="12"/>
<path d="m233.96 496.2c0 9.7826 1.9101 26.101 1.087 50-1.0876 31.578-3.2609 54.348-3.2609 75 0 16.304-0.87804 29.375 0 43.478 0.54453 8.7463 2.5408 13.38 4.3478 16.304 0.80815 1.3076-0.45023 2.8107 1.0869 4.3478 0.7686 0.76862 5.4348 0 21.739 0 30.435 0 68.492-0.61823 113.04-2.1739 47.846-1.6707 80.412-3.8041 100-4.3478 21.731-0.60315 43.451 1.6301 59.782 2.1739 9.7772 0.32556 12.162 0.63556 13.043 0 2.7884-2.0098 3.412-8.6675 4.3478-14.13 1.2976-7.5756 4.3434-16.157 5.4348-28.261 1.4642-16.238 1.2394-38.063-1.0869-55.435-2.0403-15.236-4.3478-28.261-5.4348-42.391l-1.087-9.7826v-9.7825-7.6087" fill="#fff" stroke="#000" stroke-width="12"/>
<path d="m198.91 203.26c0 1.0869-0.95859 1.1661-4.3478 6.5217-4.1914 6.6233-9.3257 14.301-11.956 20.652-1.8602 4.491-3.7603 9.8407-3.2608 11.956 0.55841 2.3655 3.5978 3.6277 6.5217 5.4348 1.3076 0.80814 3.2889 1.4352 5.4348 1.0869 3.3929-0.55058 7.8341-5.3845 8.6956-9.7826 1.4775-7.5426 1.9438-14.173 1.0869-22.826-0.54613-5.5154-2.1739-7.6087-2.1739-10.87v-2.1739" fill="#fff" stroke="#000" stroke-width="8"/>
<path d="m211.96 170.65c1.087-1.0869 1.5029-2.2566 1.087-3.2608-1.1765-2.8404-7.464-4.9394-15.217-6.5217-8.5863-1.7524-17.49-1.309-25 2.1739-6.6147 3.0679-8.9024 5.306-10.87 8.6956-1.2199 2.1022-2.5081 5.637-1.087 7.6087 1.7976 2.494 6.0317 4.2991 9.7826 5.4348 4.1613 1.2599 10.918 1.0738 22.826 0 12.103-1.0914 18.478-6.5217 21.739-8.6956v-1.0869-1.087" fill="#fff" stroke="#000" stroke-width="8"/>
<path d="m243.48 148.91c0 1.0869-0.56444 1.6937-3.2609 5.4348-2.8423 3.9434-6.5135 10.669-7.6087 19.565-0.79684 6.4729 0.42052 11.867 3.2609 13.043 2.0084 0.83192 5.451 1.3526 7.6087 1.087 4.4481-0.54758 11.352-3.6746 13.043-9.7826 1.4507-5.2376 0-11.956-3.2609-18.478l-4.3478-6.5217-3.2609-5.4348-2.1739-3.2609" fill="#fff" stroke="#000" stroke-width="8"/>
<path d="m293.48 143.48c-1.0869 0-1.0194-1.1384-4.3478-5.4348-4.2624-5.502-8.9227-11.811-13.043-18.478-4.6072-7.4545-9.232-12.911-9.7826-16.304-0.34824-2.1458-0.63556-3.466 0-4.3478 2.0098-2.7884 8.6956-2.1739 15.217-2.1739 4.3478 0 10.908 2.3312 15.217 8.6956 4.6409 6.8547 6.5075 14.953 7.6087 21.739 0.87054 5.3646 0 8.6956 0 9.7826h-1.0869v1.087h-2.1739" fill="#fff" stroke="#000" stroke-width="8"/>
<path d="m328.26 194.56c-1.0869 0-0.76376-1.6754-4.3478-3.2609-4.0985-1.8131-9.0099-4.4007-14.13-6.5217-3.6208-1.4998-6.609-2.9231-9.7826-2.1739-2.3655 0.55841-5.8868 3.0012-7.6087 6.5217-1.5102 3.0877-1.9574 6.64-1.0869 9.7826 1.6918 6.108 5.6476 7.227 9.7826 9.7826 4.6231 2.8572 9.7374 4.8905 19.565 5.4348 9.7676 0.54099 17.391-1.087 18.478-1.087h-1.087l-1.0869-1.0869" fill="#fff" stroke="#000" stroke-width="8"/>
<path d="m341.65 301.82c-1.0869 0-1.0869-1.0869-2.1739-2.1739-2.1739-2.1739-3.9776-6.0492-10.87-9.7826-7.2787-3.9429-17.311-4.8886-22.826-5.4348-2.1633-0.2142-2.1739 1.087 1.087 5.4348 3.2609 4.3478 6.7638 8.3956 10.87 11.956 2.3225 2.0143 4.0725 5.8384 8.6956 8.6956 4.135 2.5556 8.7784 3.9318 9.7826 4.3478 1.4202 0.58826 3.4263 1.9189 5.4348 1.087 2.8404-1.1765 4.3478-4.3478 6.5217-6.5217v-1.0869" fill="#fff" stroke="#000" stroke-width="8"/>
<path d="m376.09 150c0-2.1739 1.0869-6.5217 1.0869-13.043 0-6.5217-2.626-12.784-4.3478-16.304-1.5102-3.0877-2.2566-5.0188-3.2609-5.4348-1.4202-0.58826-1.758-1.0042-2.1739 0-1.1765 2.8403-1.6426 4.3804-2.1739 8.6956-0.54758 4.448-1.087 8.6956-1.087 11.956 0 2.1739-0.31073 5.6648 2.1739 8.6956 0.97455 1.1888 2.4923 1.4053 3.2609 2.1739 0.76859 0.76859 0 2.1739 2.1739 2.1739l1.087 1.0869 3.2609 1.087h1.0869" fill="#fff" stroke="#000" stroke-width="8"/>
<path d="m382.61 166.3c1.0869 0 1.2938-0.95816 3.2609-4.3478 2.4398-4.2043 4.667-8.3984 8.6956-13.043 3.5609-4.1057 4.7683-9.693 7.6087-10.87 1.0042-0.41595 2.4176-0.10562 3.2609 2.1739 1.5549 4.2033 1.5099 9.8233 2.1739 15.217 0.54758 4.448 1.0869 6.5217 1.0869 9.7826 0 3.2609-1.317 5.124-4.3478 7.6087-1.1888 0.97455-3.2609 2.1739-4.3478 2.1739-1.087 0-2.3761-0.33418-4.3478 1.087-1.247 0.8988-2.1739 1.0869-4.3478 0l-1.0869-2.1739-3.2609-2.1739" fill="#fff" stroke="#000" stroke-width="8"/>
<path d="m388.04 201.09c-2.1739-2.1739-4.2803-4.3993-7.6087-8.6956-4.2624-5.502-8.9377-10.57-13.043-14.13-3.4838-3.0215-4.0146-3.7596-5.4348-4.3478-1.0042-0.41595-1.9831 0.1064-3.2609 2.1739-1.7144 2.7738 0 9.7826 1.0869 15.217 1.087 5.4348 2.3201 10.398 5.4348 14.13 3.4823 4.1726 6.5217 5.4348 7.6087 6.5217 1.0869 1.0869 2.1739 1.087 5.4348 1.087h2.1739l2.1739-1.087" fill="#fff" stroke="#000" stroke-width="8"/>
<path d="m394.57 252.17c0-1.087 2.4876-3.1177 4.3478-7.6087 1.3154-3.1756 3.9661-8.9084 6.5217-13.043 2.8572-4.6231 6.0804-7.0793 8.6956-8.6956 2.9239-1.8071 4.3478-1.0869 6.5217-1.0869 1.0869 0 3.0991-0.55945 5.4348 4.3478 1.9261 4.0466 3.1316 8.9298 1.0869 15.217-1.5032 4.6227-5.124 8.9257-7.6087 11.956-1.9491 2.3775-5.306 4.5547-8.6956 6.5217-2.1022 1.2199-3.2609 1.0869-8.6956 2.1739h-4.3478-1.0869" fill="#fff" stroke="#000" stroke-width="8"/>
<path d="m392.39 345.65c1.0869 0 2.9501-3.491 5.4348-6.5217 3.8982-4.7551 9.6938-8.8175 14.13-11.956 3.1993-2.2636 4.6062-2.249 5.4348 1.0869 1.5938 6.4167 1.7987 12.149 0 17.391-1.5776 4.5979-5.637 7.2745-7.6087 8.6956-1.247 0.8988-4.2158 2.7103-7.6087 3.2609-3.2188 0.52234-4.3478 0-6.5217 0h-2.1739-4.3478-1.0869" fill="#fff" stroke="#000" stroke-width="8"/>
<path d="m391.3 296.74c-1.0869-2.1739-1.9703-4.5726-4.3478-6.5217-3.0308-2.4846-6.7638-4.0478-10.87-7.6087-3.4838-3.0215-4.6662-5.1165-5.4348-4.3478-0.76862 0.76862 0 3.2609 0 7.6087 0 3.2609-0.13297 6.5935 1.087 8.6956 1.9671 3.3896 2.5407 4.6848 4.3478 7.6087 1.6163 2.6152 2.2456 3.1279 4.3478 4.3478 3.3896 1.9671 6.5217 3.2609 7.6087 3.2609h1.0869 1.087 1.0869" fill="#fff" stroke="#000" stroke-width="8"/>
<path d="m395.65 121.74c0-1.087 1.5918-0.50485 5.4348-4.3478 3.843-3.843 6.0804-8.1663 8.6956-9.7826 2.9239-1.8071 4.3478-1.087 5.4348-1.087 1.0869 0 2.1739 0 2.1739 1.087v6.5217c0 3.2609 0 5.4348-1.0869 6.5217s-3.2609 3.2609-7.6087 3.2609h-4.3478-2.1739-1.0869" fill="#fff" stroke="#000" stroke-width="8"/>
<path d="m436.96 298.91c-1.0869 0-3.34-2.0455-8.6956-5.4348-3.3117-2.0957-5.1688-6.6652-7.6087-10.87-1.9671-3.3896-2.8196-9.2438-5.4348-14.13-1.4507-2.7106-2.4246-4.6774-1.0869-5.4348 3.8999-2.2081 6.8527-2.7508 10.87-1.0869 1.4202 0.58826 4.5779 1.8632 7.6087 4.3478 2.3775 1.9491 4.7999 4.0881 6.5217 7.6087 1.5102 3.0877 1.3367 6.5508 1.087 7.6087-0.55844 2.3655-1.9189 4.5133-1.087 6.5217 1.1765 2.8404 2.1739 3.2609 3.2609 3.2609v1.0869" fill="#fff" stroke="#000" stroke-width="8"/>
<path d="m461.96 234.78c-1.0869 0-2.3807-0.95818-4.3478-4.3478-2.4399-4.2043-5.5226-9.7658-6.5217-15.217-1.192-6.5034-1.3033-14.201-2.1739-19.565-0.5506-3.3929-1.087-4.3478 0-4.3478 2.1739 0 5.6476 0.70528 9.7826 3.2609 4.6231 2.8572 7.6964 6.5049 8.6956 11.956 1.192 6.5034 3.2609 11.956 3.2609 15.217 0 4.3478-2.1739 7.6087-3.2609 8.6956v1.0869" fill="#fff" stroke="#000" stroke-width="8"/>
<path d="m457.61 261.95c0-1.0869 2.3335-4.1992 4.3478-6.5217 3.5608-4.1057 6.8006-9.1509 11.956-10.87 3.0935-1.0312 5.4348-1.087 7.6087-1.087 1.0869 0 1.6263 2.0737 2.1739 6.5217 0.53122 4.3152 0.52234 6.5638 0 9.7826-0.55057 3.3928-3.1008 4.536-4.3478 5.4348-3.9435 2.8422-7.6087 3.2609-9.7826 4.3478-2.1739 1.0869-3.2609 1.0869-8.6956 2.1739l-5.4348 1.0869-3.2609 1.0869h-1.0869" fill="#fff" stroke="#000" stroke-width="8"/>
<path d="m494.56 193.48c-1.0869 0-1.0869-2.1739-1.0869-7.6087 0-7.6087-1.0869-15.217-1.0869-21.739 0-4.3478 0.32281-9.3628 3.2609-11.956 1.8221-1.6085 4.1562-1.6155 6.5217-2.1739 4.2315-0.99893 7.6914-0.41597 8.6956 0 2.8403 1.1765 3.6127 5.572 2.1739 13.043-1.1069 5.7478-5.4348 11.956-9.7826 18.478l-2.1739 4.3478-2.1739 2.1739v1.087" fill="#fff" stroke="#000" stroke-width="8"/>
<path d="m558.7 169.56c0-1.087 0.24213-1.8739 4.3478-5.4348 4.6451-4.0287 9.9271-7.1408 14.13-8.6956 4.5591-1.6865 7.4171-3.7894 9.7826-4.3478 3.1736-0.74919 5.4348-1.087 7.6087-1.087 1.0869 0 2.1739 0 2.1739 1.087 0 1.0869-0.41809 5.8146-4.3478 11.956-3.751 5.8626-8.5668 9.9894-11.956 11.956-2.1022 1.2199-3.2609 1.0869-6.5217 1.0869-4.3478 0-9.7826-1.0869-14.13-1.0869h-2.1739-1.087v-1.087" fill="#fff" stroke="#000" stroke-width="8"/>
<path d="m538.04 171.74c2.1739 1.087 4.2191 2.3807 7.6086 4.3478 4.2044 2.4399 7.3331 4.523 10.87 9.7826 3.0325 4.51 7.9817 10.735 9.7826 16.304 1.3788 4.2642 1.8555 7.927 1.0869 8.6956-0.76855 0.76857-2.1395-1.145-7.6086-4.3478-7.562-4.4285-12.188-7.2513-17.391-10.87-5.7144-3.9733-11.663-8.9444-16.304-14.13-2.0504-2.2908-3.2609-4.3478-1.087-4.3478l3.2609 1.0869h1.087l2.1739 1.087" fill="#fff" stroke="#000" stroke-width="8"/>
<path d="m580.43 181.52h10.87c4.3478 0 6.0162-0.74916 7.6086 1.087 2.2521 2.5967 3.8377 6.8527 2.1739 10.87-0.58826 1.4202-4.3478 3.2608-7.6086 3.2608s-4.6848 0.72012-7.6087-1.0869c-5.2304-3.2326-6.5217-7.6087-7.6086-11.956l-1.087-3.2608v-1.087" fill="#fff" stroke="#000" stroke-width="8"/>
<path d="m435.87 326.08c0-1.0869 1.329-1.8739 5.4348-5.4348 4.6451-4.0287 10.768-8.852 17.391-13.043 5.3556-3.3892 7.6087-5.4348 8.6956-5.4348 1.0869 0 1.498 1.1262 1.0869 3.2609-1.1069 5.7478-7.6941 11.889-11.956 17.391-3.3284 4.2964-6.5217 8.6956-8.6956 9.7826-4.3478 2.1739-10.87 3.2609-14.13 3.2609h-1.0869-2.1739-1.0869" fill="#fff" stroke="#000" stroke-width="8"/>
<path d="m481.52 209.78c1.087 0 4.1366-1.5744 8.6956-3.2609 4.2032-1.5549 8.3125-3.231 13.043-4.3478 5.2894-1.2487 10.926 0.69646 15.217 0 3.3929-0.55058 4.6661-1.8556 5.4348-1.087 1.5372 1.5372 0.92285 4.8202-1.087 7.6087-3.1777 4.4089-10.791 5.6866-17.391 7.6087-4.3029 1.253-8.7237 2.9126-10.87 3.2609-3.3929 0.55058-6.5217 1.087-9.7826 0h-2.1739-1.087" fill="#fff" stroke="#000" stroke-width="8"/>
<path d="m260.74 141.12c-0.93457 0-4.7212 0.59882-8.4112 0-2.9172-0.4734-6.1345-2.2128-9.3458-5.6074-2.3157-2.4479-3.7383-5.6074-3.7383-6.542 0-0.93457 0.27373-1.2083 0.93457-1.8692 1.3217-1.3217 6.542-0.93458 9.3458-0.93458 3.7383 0 6.4558 0.46376 10.28 0.93458 1.8551 0.22838 2.5164 1.1084 3.7383 2.8037 0.7728 1.0722 0.93457 3.7383 0.93457 5.6074v1.8691 0.93459 0.93457" fill="#fff" stroke="#000" stroke-width="8"/>
<path d="m271.96 144.86c-0.93457 0-0.93457 0.93457-1.8692 1.8692-0.93457 0.93457-0.93457 1.8691-0.93457 3.7383 0 0.93457-0.35764 2.8749 0 3.7383 0.5058 1.2211 3.7383 1.8692 4.6729 1.8692 1.8692 0 3.9121 0.28734 5.6074-0.93457 1.0722-0.77281 1.8692-1.8692 1.8692-2.8037 0-0.93459 0.93457-2.8037 1.8691-4.6729h-0.93457l-0.93457-0.93457" fill="#fff" stroke="#000" stroke-width="8"/>
<path d="m315.88 153.27c0-0.93459 2.5034-4.7916 3.7383-7.4766 2.2771-4.9509 4.7346-8.2968 6.542-9.3458 2.9145-1.6913 7.3631-3.2649 10.28-3.7383 0.92252-0.1497 2.3342 0.86523 2.8037 5.6074 0.73676 7.4402-1.8692 13.084-1.8692 17.757 0 3.7383-1.5818 6.7159-2.8037 8.4112-1.5456 2.1444-3.7383 3.7383-5.6074 3.7383h-0.93457-0.9346-0.93457" fill="#fff" stroke="#000" stroke-width="8"/>
<path d="m339.25 250.51c1.8691-1.8691 4.3733-3.3375 6.542-7.4766 2.7432-5.2356 4.6729-11.215 5.6074-14.019s4.3864-5.1017 5.6074-5.6074c1.7269-0.71529 2.8037 0 4.6729 0 2.8037 0 6.2375 2.4739 7.4766 5.6074 2.0905 5.2865 1.6623 9.6435-0.93457 14.953-2.9609 6.054-9.0583 9.7298-12.149 14.019-1.2219 1.6953-3.2325 4.3864-3.7383 5.6074-0.35764 0.86343 0 1.8691-0.93457 1.8691h-0.93457-0.93457v0.93457" fill="#fff" stroke="#000" stroke-width="8"/>
<path d="m334.78 415.22c0-1.0869 1.7373-5.2179 4.3478-14.13 4.3746-14.935 6.5205-35.792 7.6087-58.696 1.2896-27.143-2.6908-49.96-4.3478-75-1.5807-23.885-3.7463-44.675-7.6087-64.13-2.8238-14.224-5.6304-26.431-9.7826-35.869-4.5062-10.244-9.9057-15.038-16.304-19.565-4.4366-3.139-10.907-3.5981-18.478-4.3478-11.031-1.0923-25.468-4.0892-38.043 0-13.868 4.5097-25 18.478-36.956 35.869l-10.87 15.217-6.5217 11.956h-1.0869" fill="none" stroke="#000" stroke-width="8"/>
<path d="m384.78 417.39c0-5.4348 0.11575-14.12 1.087-26.087 1.2342-15.206 3.2608-33.696 4.3478-50 1.0869-16.304 2.1739-32.609 2.1739-50 0-15.217-0.28494-31.595-2.1739-47.826-1.5286-13.135-3.1268-28.275-4.3478-39.13-0.97955-8.7084-2.6068-19.66-4.3478-29.348-1.5854-8.8219-3.8025-17.324-4.3478-23.913-0.62756-7.5828 1.0869-13.043 5.4348-17.391 4.3478-4.3478 10.87-7.6087 17.391-10.87l6.5217-2.1739" fill="none" stroke="#000" stroke-width="8"/>
<path d="m423.56 414.13v-5.4348c0-8.6956 1.7362-19.629 5.4348-43.478 3.8888-25.075 7.632-56.019 16.304-83.695 7.0009-22.343 13.183-39.039 21.739-52.174 7.7354-11.875 15.837-23.32 25-31.522 10.372-9.2834 25.407-18.854 35.869-22.826 9.3685-3.5572 21.739-2.1739 32.609-1.087l8.6956 3.2609 5.4348 3.2609 3.2609 2.1739" fill="none" stroke="#000" stroke-width="8"/>
</g>
</svg>
