<svg width="800" height="800" xmlns="http://www.w3.org/2000/svg">
 <g>
  <title>Layer 1</title>
  <path fill="#ffffff" stroke="#000000" stroke-width="12" id="svg_44" d="m184.78322,404.34555c7.60867,0 20.47643,1.48798 51.08681,4.34781c48.7489,4.55444 115.20166,7.11026 186.95599,8.69565c78.24911,1.72888 135.86917,1.08694 164.12997,1.08694c7.6087,0 7.44635,0.51547 6.52173,1.08694c-4.13501,2.55557 -3.26086,9.78259 -3.26086,20.65213c0,14.1304 3.80377,28.22379 4.34784,40.21729c0.39404,8.68668 0,15.21735 0,19.56516c0,1.08694 0,2.17389 -1.08698,2.17389c-1.08698,0 -7.6087,1.08698 -21.73907,1.08698c-27.17383,0 -64.12006,-0.12463 -103.26059,-3.26086c-42.38058,-3.39584 -81.49707,-5.96286 -122.82574,-7.60867c-40.20007,-1.60086 -77.18832,-2.42358 -97.82579,-1.08694c-14.14252,0.91599 -19.56517,1.08694 -20.65211,1.08694c-1.08696,0 -2.17392,0 -5.43477,0c-4.34782,0 -7.67477,-0.69641 -15.21736,-2.17392c-8.79607,-1.72305 -16.94101,-2.81064 -18.4782,-4.34781c-0.76859,-0.76859 0,-2.17392 0,-7.60867c0,-8.69562 3.80377,-20.61514 4.34781,-32.60861c0.59106,-13.03003 1.08694,-23.91296 1.08694,-30.43469l0,-5.43475l0,-4.34781l-1.08694,-3.26086"/>
  <path fill="#ffffff" stroke="#000000" stroke-width="12" id="svg_46" d="m233.95556,496.20131c0,9.78259 1.91008,26.10104 1.08696,49.99985c-1.0876,31.57782 -3.26086,54.34772 -3.26086,74.99982c0,16.30432 -0.87804,29.375 0,43.47815c0.54453,8.74634 2.54079,13.38037 4.34782,16.30426c0.80815,1.30762 -0.45023,2.81067 1.08694,4.34784c0.7686,0.76862 5.43477,0 21.73907,0c30.43469,0 68.49194,-0.61823 113.04315,-2.17389c47.84619,-1.67072 80.41196,-3.80414 99.99973,-4.34784c21.73071,-0.60315 43.45102,1.63013 59.78244,2.17389c9.77716,0.32556 12.16168,0.63556 13.04346,0c2.78839,-2.00977 3.41205,-8.66754 4.34778,-14.13037c1.29761,-7.57556 4.34338,-16.15741 5.43475,-28.2608c1.46417,-16.2384 1.23944,-38.06305 -1.08691,-55.43463c-2.04034,-15.23584 -4.34784,-28.26074 -5.43475,-42.39117l-1.08698,-9.78259l0,-9.78253l0,-7.6087"/>
  <path fill="#ffffff" stroke="#000000" stroke-width="8" id="svg_50" d="m198.91361,203.25917c0,1.08694 -0.95859,1.16606 -4.34781,6.52171c-4.19144,6.62332 -9.32574,14.30092 -11.9565,20.65211c-1.86023,4.491 -3.7603,9.84074 -3.26085,11.9565c0.55841,2.36548 3.59781,3.6277 6.52171,5.43477c1.3076,0.80814 3.28894,1.43517 5.43477,1.08694c3.39287,-0.55058 7.83411,-5.38454 8.69563,-9.78258c1.47749,-7.54257 1.94379,-14.17271 1.08694,-22.82602c-0.54613,-5.51543 -2.1739,-7.60867 -2.1739,-10.86954l0,-2.1739"/>
  <path fill="#ffffff" stroke="#000000" stroke-width="8" id="svg_51" d="m211.95705,170.65056c1.08696,-1.08694 1.50291,-2.25664 1.08696,-3.26085c-1.17651,-2.84035 -7.46404,-4.93935 -15.21735,-6.52173c-8.5863,-1.7524 -17.49034,-1.30904 -24.99994,2.1739c-6.61469,3.06789 -8.90244,5.306 -10.86952,8.69563c-1.21994,2.10216 -2.5081,5.63695 -1.08696,7.60867c1.79762,2.49405 6.03168,4.29909 9.78258,5.43477c4.16127,1.25993 10.91785,1.07376 22.82602,0c12.10341,-1.09137 18.47821,-6.52173 21.73907,-8.69563l0,-1.08694l0,-1.08696"/>
  <path fill="#ffffff" stroke="#000000" stroke-width="8" id="svg_52" d="m243.4787,148.9115c0,1.08694 -0.56444,1.69368 -3.26086,5.43477c-2.84227,3.94345 -6.5135,10.66907 -7.60867,19.56516c-0.79684,6.47287 0.42052,11.86693 3.26086,13.04344c2.00842,0.83192 5.45105,1.35257 7.60867,1.08696c4.44806,-0.54758 11.35162,-3.67459 13.04346,-9.78259c1.45071,-5.23755 0,-11.95648 -3.26088,-18.4782l-4.34781,-6.52173l-3.26086,-5.43477l-2.1739,-3.26086"/>
  <path fill="#ffffff" stroke="#000000" stroke-width="8" id="svg_53" d="m293.47855,143.47673c-1.08694,0 -1.01944,-1.13841 -4.34781,-5.43477c-4.26239,-5.50201 -8.92267,-11.8107 -13.04343,-18.47821c-4.60715,-7.45451 -9.23199,-12.91143 -9.78259,-16.3043c-0.34824,-2.14584 -0.63556,-3.46603 0,-4.34782c2.0098,-2.78844 8.69565,-2.1739 15.21735,-2.1739c4.34781,0 10.90842,2.33117 15.21735,8.69563c4.64087,6.85474 6.50751,14.95334 7.60867,21.73907c0.87054,5.36459 0,8.69563 0,9.78258l-1.08694,0l0,1.08696l-2.17389,0"/>
  <path fill="#ffffff" stroke="#000000" stroke-width="8" id="svg_54" d="m328.26108,194.56354c-1.08694,0 -0.76376,-1.67538 -4.34781,-3.26086c-4.09854,-1.81306 -9.00992,-4.40073 -14.1304,-6.52171c-3.62076,-1.49976 -6.60895,-2.9231 -9.78259,-2.1739c-2.36548,0.55841 -5.88681,3.00116 -7.60867,6.52171c-1.51016,3.08774 -1.95737,6.64005 -1.08694,9.78259c1.69183,6.10799 5.64755,7.22699 9.78259,9.78258c4.62308,2.85722 9.73743,4.89046 19.56516,5.43477c9.76758,0.54099 17.39124,-1.08696 18.47821,-1.08696l-1.08698,0l-1.08694,-1.08694"/>
  <path fill="#ffffff" stroke="#000000" stroke-width="8" id="svg_57" d="m341.65233,301.82412c-1.08694,0 -1.08694,-1.08694 -2.17392,-2.17392c-2.17389,-2.17389 -3.9776,-6.04922 -10.86951,-9.78256c-7.27869,-3.94287 -17.31061,-4.88864 -22.82605,-5.43478c-2.1633,-0.2142 -2.17389,1.08698 1.08698,5.43478c3.26086,4.34781 6.76379,8.3956 10.86954,11.95648c2.32254,2.01431 4.07254,5.83838 8.69562,8.69562c4.13501,2.5556 8.77835,3.93182 9.78259,4.34781c1.42017,0.58826 3.4263,1.91888 5.43475,1.08698c2.84036,-1.17651 4.34781,-4.34781 6.52173,-6.52173l0,-1.08694"/>
  <path fill="#ffffff" stroke="#000000" stroke-width="8" id="svg_59" d="m376.08704,149.99844c0,-2.1739 1.08694,-6.52171 1.08694,-13.04344c0,-6.52171 -2.62595,-12.78375 -4.34781,-16.3043c-1.51016,-3.08774 -2.25665,-5.0188 -3.26086,-5.43476c-1.42017,-0.58826 -1.75797,-1.00422 -2.17392,0c-1.17651,2.84033 -1.64264,4.38039 -2.17389,8.69563c-0.54758,4.44805 -1.08698,8.69563 -1.08698,11.95649c0,2.1739 -0.31073,5.66484 2.17392,8.69562c0.97455,1.18877 2.49228,1.40533 3.26086,2.17392c0.76859,0.76859 0,2.1739 2.17389,2.1739l1.08698,1.08694l3.26086,1.08696l1.08694,0"/>
  <path fill="#ffffff" stroke-width="8" id="svg_60" d="m382.60875,166.30274c1.08694,0 1.29376,-0.95816 3.26086,-4.34781c2.43985,-4.20432 4.66696,-8.39836 8.69562,-13.04344c3.56088,-4.10571 4.76834,-9.69302 7.60867,-10.86954c1.00421,-0.41595 2.41763,-0.10562 3.26086,2.1739c1.55487,4.20326 1.50989,9.82332 2.17392,15.21736c0.54758,4.44804 1.08694,6.52171 1.08694,9.78258c0,3.26086 -1.31702,5.12405 -4.34781,7.60867c-1.18878,0.97455 -3.26086,2.1739 -4.34781,2.1739c-1.08698,0 -2.3761,-0.33418 -4.34784,1.08696c-1.24701,0.8988 -2.17389,1.08694 -4.34781,0l-1.08694,-2.17392l-3.26086,-2.1739" stroke="#000000"/>
  <path fill="#ffffff" stroke="#000000" stroke-width="8" id="svg_61" d="m388.04352,201.08527c-2.17392,-2.17392 -4.2803,-4.39928 -7.60867,-8.69563c-4.26239,-5.50201 -8.93774,-10.56953 -13.04346,-14.1304c-3.48383,-3.02148 -4.01459,-3.75955 -5.43475,-4.34781c-1.00421,-0.41595 -1.98306,0.1064 -3.26086,2.1739c-1.71436,2.77385 0,9.78258 1.08694,15.21735c1.08698,5.43477 2.3201,10.39836 5.43478,14.1304c3.48233,4.17255 6.5217,5.43475 7.60867,6.52171c1.08694,1.08694 2.17389,1.08696 5.43475,1.08696l2.17392,0l2.17389,-1.08696"/>
  <path fill="#ffffff" stroke="#000000" stroke-width="8" id="svg_62" d="m394.56525,252.17207c0,-1.08696 2.48758,-3.11769 4.34781,-7.60867c1.31537,-3.1756 3.96613,-8.90843 6.5217,-13.04344c2.85721,-4.62309 6.08041,-7.07933 8.69565,-8.69563c2.92389,-1.80707 4.34781,-1.08694 6.52173,-1.08694c1.08694,0 3.09906,-0.55945 5.43475,4.34781c1.92606,4.04662 3.13156,8.92975 1.08694,15.21735c-1.50323,4.62273 -5.12402,8.9257 -7.60867,11.9565c-1.9491,2.37753 -5.30597,4.55466 -8.69562,6.52173c-2.10217,1.21994 -3.26086,1.08694 -8.69562,2.17389l-4.34784,0l-1.08694,0"/>
  <path fill="#ffffff" stroke="#000000" stroke-width="8" id="svg_64" d="m392.39133,345.65009c1.08694,0 2.9501,-3.49097 5.43475,-6.52173c3.89822,-4.7551 9.69379,-8.81754 14.1304,-11.95648c3.19931,-2.26355 4.60623,-2.24896 5.43478,1.08694c1.59378,6.41672 1.79871,12.14883 0,17.39127c-1.57758,4.5979 -5.63696,7.27451 -7.60867,8.69562c-1.24704,0.8988 -4.21582,2.71027 -7.60867,3.26086c-3.21875,0.52234 -4.34784,0 -6.52173,0l-2.17392,0l-4.34781,0l-1.08694,0"/>
  <path fill="#ffffff" stroke="#000000" stroke-width="8" id="svg_65" d="m391.30438,296.73716c-1.08694,-2.17389 -1.97031,-4.5726 -4.34781,-6.5217c-3.03079,-2.48465 -6.76382,-4.04782 -10.86954,-7.60867c-3.48383,-3.02148 -4.66617,-5.11646 -5.43478,-4.34784c-0.76862,0.76862 0,3.26086 0,7.60867c0,3.26086 -0.13297,6.59348 1.08698,8.69565c1.96707,3.38962 2.54074,4.68478 4.34781,7.60867c1.61627,2.61517 2.24564,3.12787 4.34781,4.34781c3.38965,1.96707 6.52173,3.26086 7.60867,3.26086l1.08694,0l1.08698,0l1.08694,0"/>
  <path fill="#ffffff" stroke="#000000" stroke-width="8" id="svg_66" d="m395.65217,121.73766c0,-1.08695 1.59183,-0.50485 5.43478,-4.34781c3.84296,-3.84296 6.08041,-8.1663 8.69562,-9.78259c2.92389,-1.80708 4.34781,-1.08695 5.43478,-1.08695c1.08694,0 2.17389,0 2.17389,1.08695c0,1.08695 0,3.26086 0,6.52172c0,3.26086 0,5.43477 -1.08694,6.52172c-1.08694,1.08695 -3.26086,3.26086 -7.60867,3.26086l-4.34781,0l-2.17392,0l-1.08694,0"/>
  <path fill="#ffffff" stroke="#000000" stroke-width="8" id="svg_67" d="m436.95642,298.91107c-1.08694,0 -3.34,-2.04553 -8.69562,-5.43475c-3.31168,-2.09573 -5.16882,-6.66522 -7.60867,-10.86954c-1.9671,-3.38965 -2.81958,-9.24384 -5.43478,-14.1304c-1.45068,-2.7106 -2.42462,-4.6774 -1.08694,-5.43478c3.8999,-2.2081 6.85269,-2.75079 10.86954,-1.08694c1.42017,0.58826 4.57791,1.86316 7.60867,4.34781c2.37753,1.94913 4.79987,4.08813 6.5217,7.60867c1.51016,3.08774 1.3367,6.55081 1.08698,7.60867c-0.55844,2.36551 -1.91888,4.51331 -1.08698,6.52173c1.17651,2.84036 2.17392,3.26086 3.26086,3.26086l0,1.08694"/>
  <path fill="#ffffff" stroke="#000000" stroke-width="8" id="svg_68" d="m461.95635,234.78082c-1.08694,0 -2.38074,-0.95818 -4.34781,-4.34781c-2.43988,-4.20433 -5.52255,-9.76576 -6.52173,-15.21735c-1.19196,-6.50336 -1.30331,-14.20058 -2.17389,-19.56517c-0.5506,-3.39287 -1.08698,-4.34781 0,-4.34781c2.17389,0 5.64755,0.70528 9.78256,3.26086c4.62308,2.85722 7.69641,6.5049 8.69562,11.95648c1.19196,6.50336 3.26086,11.95648 3.26086,15.21735c0,4.34782 -2.17389,7.60867 -3.26086,8.69563l0,1.08694"/>
  <path fill="#ffffff" stroke="#000000" stroke-width="8" id="svg_69" d="m457.60852,261.95465c0,-1.08694 2.3335,-4.19916 4.34784,-6.52171c3.56085,-4.10571 6.8006,-9.15091 11.95648,-10.86954c3.09354,-1.03117 5.43475,-1.08696 7.60867,-1.08696c1.08694,0 1.62631,2.07368 2.17389,6.52173c0.53122,4.31523 0.52234,6.56384 0,9.78259c-0.55057,3.39282 -3.10077,4.53595 -4.34781,5.43475c-3.94348,2.84225 -7.60867,3.26086 -9.78256,4.34781c-2.17392,1.08694 -3.26086,1.08694 -8.69565,2.17392l-5.43475,1.08694l-3.26086,1.08694l-1.08694,0"/>
  <path fill="#ffffff" stroke="#000000" stroke-width="8" id="svg_70" d="m494.56494,193.47659c-1.08694,0 -1.08694,-2.1739 -1.08694,-7.60867c0,-7.60867 -1.08694,-15.21735 -1.08694,-21.73907c0,-4.34781 0.32281,-9.36282 3.26086,-11.95648c1.82208,-1.60851 4.15622,-1.61549 6.5217,-2.1739c4.23154,-0.99893 7.69141,-0.41597 8.69565,0c2.84033,1.17651 3.61273,5.57205 2.17389,13.04344c-1.1069,5.7478 -5.43475,11.95648 -9.78256,18.47821l-2.17392,4.34781l-2.17392,2.1739l0,1.08696"/>
  <path fill="#ffffff" stroke="#000000" stroke-width="8" id="svg_71" d="m558.69519,169.56362c0,-1.08696 0.24213,-1.87389 4.34784,-5.43477c4.64508,-4.02866 9.92712,-7.14076 14.13037,-8.69563c4.55908,-1.68651 7.41711,-3.7894 9.78259,-4.34781c3.17365,-0.74919 5.43475,-1.08696 7.6087,-1.08696c1.08691,0 2.17389,0 2.17389,1.08696c0,1.08694 -0.41809,5.81459 -4.34784,11.95648c-3.75104,5.86256 -8.56683,9.98941 -11.95648,11.9565c-2.10217,1.21992 -3.26086,1.08694 -6.52173,1.08694c-4.34778,0 -9.78259,-1.08694 -14.13037,-1.08694l-2.17389,0l-1.08698,0l0,-1.08696"/>
  <path fill="#ffffff" stroke="#000000" stroke-width="8" id="svg_72" d="m538.04309,171.73752c2.17389,1.08696 4.21906,2.38074 7.60864,4.34781c4.20435,2.4399 7.33307,4.52304 10.86957,9.78259c3.03253,4.51003 7.98169,10.73477 9.78259,16.30429c1.37885,4.26424 1.85553,7.92703 1.08691,8.69563c-0.76855,0.76857 -2.13953,-1.14496 -7.60864,-4.34781c-7.56201,-4.42851 -12.18756,-7.25131 -17.39124,-10.86954c-5.71436,-3.9733 -11.66266,-8.94438 -16.30432,-14.1304c-2.05035,-2.2908 -3.26086,-4.34781 -1.08698,-4.34781l3.26086,1.08694l1.08698,0l2.17389,1.08696"/>
  <path fill="#ffffff" stroke="#000000" stroke-width="8" id="svg_73" d="m580.43427,181.5201c3.26086,0 6.52173,0 10.86957,0c4.34778,0 6.01617,-0.74916 7.60864,1.08696c2.25208,2.59669 3.83771,6.85266 2.17389,10.86954c-0.58826,1.42015 -4.34778,3.26085 -7.60864,3.26085c-3.26086,0 -4.68481,0.72012 -7.6087,-1.08694c-5.23041,-3.23257 -6.52173,-7.60867 -7.60864,-11.9565l-1.08698,-3.26085l0,-1.08696"/>
  <path fill="#ffffff" stroke="#000000" stroke-width="8" id="svg_77" d="m435.86947,326.0849c0,-1.08694 1.32904,-1.87387 5.43475,-5.43475c4.64508,-4.02866 10.76794,-8.85199 17.39127,-13.04346c5.35565,-3.38922 7.60867,-5.43475 8.69562,-5.43475c1.08694,0 1.49805,1.12616 1.08694,3.26086c-1.1069,5.7478 -7.69409,11.88922 -11.95648,17.39124c-3.32837,4.29639 -6.5217,8.69565 -8.69562,9.78259c-4.34781,2.17389 -10.86954,3.26086 -14.1304,3.26086l-1.08694,0l-2.17392,0l-1.08694,0"/>
  <path fill="#ffffff" stroke="#000000" stroke-width="8" id="svg_79" d="m481.5215,209.78089c1.08698,0 4.1366,-1.57436 8.69565,-3.26086c4.20325,-1.55489 8.31247,-3.23099 13.04343,-4.34781c5.2894,-1.24866 10.92569,0.69646 15.21738,0c3.39288,-0.55058 4.66614,-1.85556 5.43475,-1.08696c1.53717,1.53719 0.92285,4.82022 -1.08698,7.60867c-3.17773,4.40889 -10.79089,5.68665 -17.39124,7.60867c-4.30289,1.25301 -8.72372,2.91264 -10.86954,3.26086c-3.39288,0.55058 -6.52173,1.08696 -9.78259,0l-2.17389,0l-1.08698,0"/>
  <path fill="#ffffff" stroke="#000000" stroke-width="8" id="svg_83" d="m260.74484,141.11919c-0.93457,0 -4.72116,0.59882 -8.41118,0c-2.91722,-0.4734 -6.13449,-2.21281 -9.34576,-5.60745c-2.31567,-2.44791 -3.7383,-5.60745 -3.7383,-6.54204c0,-0.93457 0.27373,-1.20831 0.93457,-1.86915c1.32169,-1.32169 6.54204,-0.93458 9.34576,-0.93458c3.7383,0 6.45584,0.46376 10.28033,0.93458c1.85513,0.22838 2.51636,1.10842 3.73828,2.80373c0.7728,1.0722 0.93457,3.7383 0.93457,5.60745l0,1.86914l0,0.93459l0,0.93457"/>
  <path fill="#ffffff" stroke="#000000" stroke-width="8" id="svg_86" d="m271.95975,144.85748c-0.93457,0 -0.93457,0.93457 -1.86917,1.86916c-0.93457,0.93457 -0.93457,1.86914 -0.93457,3.7383c0,0.93457 -0.35764,2.87486 0,3.7383c0.5058,1.22108 3.73831,1.86916 4.67288,1.86916c1.86917,0 3.91214,0.28734 5.60745,-0.93457c1.0722,-0.77281 1.86917,-1.86916 1.86917,-2.80373c0,-0.93459 0.93457,-2.80373 1.86914,-4.67288l-0.93457,0l-0.93457,-0.93457"/>
  <path fill="#ffffff" stroke="#000000" stroke-width="8" id="svg_89" d="m315.88478,153.26867c0,-0.93459 2.50339,-4.7916 3.73831,-7.47661c2.2771,-4.95091 4.73456,-8.29684 6.54202,-9.34575c2.91446,-1.69133 7.36313,-3.26491 10.28033,-3.73831c0.92252,-0.1497 2.33417,0.86523 2.80374,5.60745c0.73676,7.44022 -1.86917,13.08406 -1.86917,17.75694c0,3.7383 -1.58179,6.71587 -2.80371,8.41118c-1.54562,2.14442 -3.73831,3.7383 -5.60745,3.7383l-0.93457,0l-0.9346,0l-0.93457,0"/>
  <path fill="#ffffff" stroke="#000000" stroke-width="8" id="svg_90" d="m339.24918,250.51032c1.86914,-1.86914 4.37332,-3.33746 6.54202,-7.47659c2.74323,-5.23564 4.67288,-11.2149 5.60745,-14.01863c0.93457,-2.80373 4.38638,-5.10167 5.60745,-5.60745c1.72687,-0.71529 2.80374,0 4.67288,0c2.80371,0 6.23746,2.47391 7.47659,5.60745c2.09052,5.28647 1.66232,9.64346 -0.93457,14.9532c-2.96094,6.05403 -9.05826,9.7298 -12.14948,14.01863c-1.22189,1.69531 -3.23251,4.38638 -3.73831,5.60745c-0.35764,0.86343 0,1.86914 -0.93457,1.86914l-0.93457,0l-0.93457,0l0,0.93457"/>
  <path fill="none" stroke="#000000" stroke-width="8" id="svg_47" d="m334.78279,415.2151c0,-1.08694 1.73734,-5.21793 4.34781,-14.1304c4.37457,-14.93533 6.52051,-35.79202 7.60867,-58.6955c1.28961,-27.14322 -2.69077,-49.96027 -4.34781,-74.99979c-1.58066,-23.88541 -3.74634,-44.67488 -7.60867,-64.13025c-2.82382,-14.22418 -5.6304,-26.43063 -9.78256,-35.86946c-4.50616,-10.24355 -9.90573,-15.03807 -16.30432,-19.56516c-4.43661,-3.13898 -10.90656,-3.59808 -18.47821,-4.34782c-11.03085,-1.09227 -25.46817,-4.08925 -38.04337,0c-13.86819,4.50972 -24.99992,18.47821 -36.95642,35.86946l-10.86952,15.21736l-6.52173,11.95648l-1.08694,0"/>
  <path fill="none" stroke="#000000" stroke-width="8" id="svg_48" d="m384.78264,417.38899c0,-5.43475 0.11575,-14.12042 1.08698,-26.08688c1.23416,-15.20612 3.26083,-33.69556 4.34781,-49.99985c1.08694,-16.30429 2.17389,-32.60861 2.17389,-49.99985c0,-15.21735 -0.28494,-31.59503 -2.17389,-47.82596c-1.52863,-13.1347 -3.12677,-28.27504 -4.34781,-39.13033c-0.97955,-8.70839 -2.60681,-19.66017 -4.34784,-29.34775c-1.58545,-8.82191 -3.80249,-17.32382 -4.34781,-23.91298c-0.62756,-7.58275 1.08694,-13.04343 5.43478,-17.39125c4.34781,-4.34781 10.86954,-7.60867 17.39124,-10.86954l6.52173,-2.1739"/>
  <path fill="none" stroke="#000000" stroke-width="8" id="svg_49" d="m423.56403,414.12814c0,-1.08694 0,-2.17392 0,-5.43478c0,-8.69562 1.73615,-19.62894 5.43478,-43.47812c3.88882,-25.07544 7.63202,-56.01877 16.30429,-83.69543c7.00089,-22.34253 13.18268,-39.03856 21.73907,-52.17375c7.73541,-11.87489 15.83673,-23.32019 24.99994,-31.52165c10.37204,-9.28342 25.40738,-18.85358 35.86948,-22.82602c9.36853,-3.55724 21.73907,-2.1739 32.60858,-1.08696l8.69562,3.26086l5.43475,3.26086l3.26086,2.1739"/>
 </g>

</svg>