<svg width="640" height="640" xmlns="http://www.w3.org/2000/svg">
 <g>
  <title>Layer 1</title>
  <path stroke="#000" id="svg_2" stroke-width="12" fill="#CC7C65" d="m165.96,420.20001c0,10.29891 1.9101,27.47857 1.087,52.63892c-1.0876,33.24464 -3.2609,57.2164 -3.2609,78.95838c0,17.1645 -0.87804,30.92536 0,45.7727c0.54453,9.20792 2.5408,14.08617 4.3478,17.1645c0.80815,1.37661 -0.45023,2.95904 1.0869,4.57727c0.7686,0.80919 5.4348,0 21.739,0c30.435,0 68.492,-0.65086 113.04,-2.28863c47.846,-1.75888 80.412,-4.00487 100,-4.57727c21.731,-0.63498 43.451,1.71613 59.782,2.28863c9.7772,0.34274 12.162,0.6691 13.043,0c2.7884,-2.11587 3.412,-9.12496 4.3478,-14.87576c1.2976,-7.97543 4.3434,-17.00974 5.4348,-29.75257c1.4642,-17.09502 1.2394,-40.0719 -1.0869,-58.36077c-2.0403,-16.04013 -4.3478,-29.75257 -5.4348,-44.62833l-1.087,-10.29891l0,-10.2988l0,-8.01027"/>
  <path id="svg_1" stroke-width="12" stroke="#000" fill="#CC7C65" d="m117.78,338.35c7.6087,0 20.476,1.488 51.087,4.3478c48.749,4.5544 115.2,7.1103 186.96,8.6956c78.249,1.7289 135.87,1.0869 164.13,1.0869c7.6087,0 7.4464,0.51547 6.5217,1.0869c-4.135,2.5556 -3.2609,9.7826 -3.2609,20.652c0,14.13 3.8038,28.224 4.3478,40.217c0.39404,8.6867 0,15.217 0,19.565c0,1.0869 0,2.1739 -1.087,2.1739s-7.6087,1.087 -21.739,1.087c-27.174,0 -64.12,-0.12463 -103.26,-3.2609c-42.381,-3.3958 -81.497,-5.9629 -122.83,-7.6087c-40.2,-1.6009 -77.188,-2.4236 -97.826,-1.0869c-14.143,0.91599 -19.565,1.0869 -20.652,1.0869l-5.4348,0c-4.3478,0 -7.6748,-0.69641 -15.217,-2.1739c-8.7961,-1.723 -16.941,-2.8106 -18.478,-4.3478c-0.76859,-0.76859 0,-2.1739 0,-7.6087c0,-8.6956 3.8038,-20.615 4.3478,-32.609c0.59106,-13.03 1.0869,-23.913 1.0869,-30.435l0,-5.4348l0,-4.3478l-1.0869,-3.2609"/>
  <path id="svg_3" stroke-width="8" stroke="#000" fill="#46673D" d="m131.91,137.26c0,1.0869 -0.95859,1.1661 -4.3478,6.5217c-4.1914,6.6233 -9.3257,14.301 -11.956,20.652c-1.8602,4.491 -3.7603,9.8407 -3.2608,11.956c0.55841,2.3655 3.5978,3.6277 6.5217,5.4348c1.3076,0.80814 3.2889,1.4352 5.4348,1.0869c3.3929,-0.55058 7.8341,-5.3845 8.6956,-9.7826c1.4775,-7.5426 1.9438,-14.173 1.0869,-22.826c-0.54613,-5.5154 -2.1739,-7.6087 -2.1739,-10.87l0,-2.1739"/>
  <path id="svg_4" stroke-width="8" stroke="#000" fill="#46673D" d="m144.96,104.65c1.087,-1.0869 1.5029,-2.2566 1.087,-3.2608c-1.1765,-2.8404 -7.464,-4.9394 -15.217,-6.5217c-8.5863,-1.7524 -17.49,-1.309 -25,2.1739c-6.6147,3.0679 -8.9024,5.306 -10.87,8.6956c-1.2199,2.1022 -2.5081,5.637 -1.087,7.6087c1.7976,2.494 6.0317,4.2991 9.7826,5.4348c4.1613,1.2599 10.918,1.0738 22.826,0c12.103,-1.0914 18.478,-6.5217 21.739,-8.6956l0,-1.0869l0,-1.087"/>
  <path id="svg_5" stroke-width="8" stroke="#000" fill="#46673D" d="m176.48,82.91c0,1.0869 -0.56444,1.6937 -3.2609,5.4348c-2.8423,3.9434 -6.5135,10.669 -7.6087,19.565c-0.79684,6.4729 0.42052,11.867 3.2609,13.043c2.0084,0.83192 5.451,1.3526 7.6087,1.087c4.4481,-0.54758 11.352,-3.6746 13.043,-9.7826c1.4507,-5.2376 0,-11.956 -3.2609,-18.478l-4.3478,-6.5217l-3.2609,-5.4348l-2.1739,-3.2609"/>
  <path id="svg_6" stroke-width="8" stroke="#000" fill="#46673D" d="m226.48,77.48c-1.0869,0 -1.0194,-1.1384 -4.3478,-5.4348c-4.2624,-5.502 -8.9227,-11.811 -13.043,-18.478c-4.6072,-7.4545 -9.232,-12.911 -9.7826,-16.304c-0.34824,-2.1458 -0.63556,-3.466 0,-4.3478c2.0098,-2.7884 8.6956,-2.1739 15.217,-2.1739c4.3478,0 10.908,2.3312 15.217,8.6956c4.6409,6.8547 6.5075,14.953 7.6087,21.739c0.87054,5.3646 0,8.6956 0,9.7826l-1.0869,0l0,1.087l-2.1739,0"/>
  <path id="svg_7" stroke-width="8" stroke="#000" fill="#46673D" d="m261.26,128.56c-1.0869,0 -0.76376,-1.6754 -4.3478,-3.2609c-4.0985,-1.8131 -9.0099,-4.4007 -14.13,-6.5217c-3.6208,-1.4998 -6.609,-2.9231 -9.7826,-2.1739c-2.3655,0.55841 -5.8868,3.0012 -7.6087,6.5217c-1.5102,3.0877 -1.9574,6.64 -1.0869,9.7826c1.6918,6.108 5.6476,7.227 9.7826,9.7826c4.6231,2.8572 9.7374,4.8905 19.565,5.4348c9.7676,0.54099 17.391,-1.087 18.478,-1.087l-1.087,0l-1.0869,-1.0869"/>
  <path id="svg_8" stroke-width="8" stroke="#000" fill="#46673D" d="m274.65,235.82c-1.0869,0 -1.0869,-1.0869 -2.1739,-2.1739c-2.1739,-2.1739 -3.9776,-6.0492 -10.87,-9.7826c-7.2787,-3.9429 -17.311,-4.8886 -22.826,-5.4348c-2.1633,-0.2142 -2.1739,1.087 1.087,5.4348c3.2609,4.3478 6.7638,8.3956 10.87,11.956c2.3225,2.0143 4.0725,5.8384 8.6956,8.6956c4.135,2.5556 8.7784,3.9318 9.7826,4.3478c1.4202,0.58826 3.4263,1.9189 5.4348,1.087c2.8404,-1.1765 4.3478,-4.3478 6.5217,-6.5217l0,-1.0869"/>
  <path id="svg_9" stroke-width="8" stroke="#000" fill="#46673D" d="m309.09,84c0,-2.1739 1.0869,-6.5217 1.0869,-13.043c0,-6.5217 -2.626,-12.784 -4.3478,-16.304c-1.5102,-3.0877 -2.2566,-5.0188 -3.2609,-5.4348c-1.4202,-0.58826 -1.758,-1.0042 -2.1739,0c-1.1765,2.8403 -1.6426,4.3804 -2.1739,8.6956c-0.54758,4.448 -1.087,8.6956 -1.087,11.956c0,2.1739 -0.31073,5.6648 2.1739,8.6956c0.97455,1.1888 2.4923,1.4053 3.2609,2.1739c0.76859,0.76859 0,2.1739 2.1739,2.1739l1.087,1.0869l3.2609,1.087l1.0869,0"/>
  <path id="svg_10" stroke-width="8" stroke="#000" fill="#46673D" d="m315.61,100.3c1.0869,0 1.2938,-0.95816 3.2609,-4.3478c2.4398,-4.2043 4.667,-8.3984 8.6956,-13.043c3.5609,-4.1057 4.7683,-9.693 7.6087,-10.87c1.0042,-0.41595 2.4176,-0.10562 3.2609,2.1739c1.5549,4.2033 1.5099,9.8233 2.1739,15.217c0.54758,4.448 1.0869,6.5217 1.0869,9.7826c0,3.2609 -1.317,5.124 -4.3478,7.6087c-1.1888,0.97455 -3.2609,2.1739 -4.3478,2.1739c-1.087,0 -2.3761,-0.33418 -4.3478,1.087c-1.247,0.8988 -2.1739,1.0869 -4.3478,0l-1.0869,-2.1739l-3.2609,-2.1739"/>
  <path id="svg_11" stroke-width="8" stroke="#000" fill="#46673D" d="m321.04,135.09c-2.1739,-2.1739 -4.2803,-4.3993 -7.6087,-8.6956c-4.2624,-5.502 -8.9377,-10.57 -13.043,-14.13c-3.4838,-3.0215 -4.0146,-3.7596 -5.4348,-4.3478c-1.0042,-0.41595 -1.9831,0.1064 -3.2609,2.1739c-1.7144,2.7738 0,9.7826 1.0869,15.217c1.087,5.4348 2.3201,10.398 5.4348,14.13c3.4823,4.1726 6.5217,5.4348 7.6087,6.5217c1.0869,1.0869 2.1739,1.087 5.4348,1.087l2.1739,0l2.1739,-1.087"/>
  <path id="svg_12" stroke-width="8" stroke="#000" fill="#46673D" d="m327.57,186.17c0,-1.087 2.4876,-3.1177 4.3478,-7.6087c1.3154,-3.1756 3.9661,-8.9084 6.5217,-13.043c2.8572,-4.6231 6.0804,-7.0793 8.6956,-8.6956c2.9239,-1.8071 4.3478,-1.0869 6.5217,-1.0869c1.0869,0 3.0991,-0.55945 5.4348,4.3478c1.9261,4.0466 3.1316,8.9298 1.0869,15.217c-1.5032,4.6227 -5.124,8.9257 -7.6087,11.956c-1.9491,2.3775 -5.306,4.5547 -8.6956,6.5217c-2.1022,1.2199 -3.2609,1.0869 -8.6956,2.1739l-4.3478,0l-1.0869,0"/>
  <path id="svg_13" stroke-width="8" stroke="#000" fill="#46673D" d="m325.39,279.65c1.0869,0 2.9501,-3.491 5.4348,-6.5217c3.8982,-4.7551 9.6938,-8.8175 14.13,-11.956c3.1993,-2.2636 4.6062,-2.249 5.4348,1.0869c1.5938,6.4167 1.7987,12.149 0,17.391c-1.5776,4.5979 -5.637,7.2745 -7.6087,8.6956c-1.247,0.8988 -4.2158,2.7103 -7.6087,3.2609c-3.2188,0.52234 -4.3478,0 -6.5217,0l-2.1739,0l-4.3478,0l-1.0869,0"/>
  <path id="svg_14" stroke-width="8" stroke="#000" fill="#46673D" d="m324.3,230.74c-1.0869,-2.1739 -1.9703,-4.5726 -4.3478,-6.5217c-3.0308,-2.4846 -6.7638,-4.0478 -10.87,-7.6087c-3.4838,-3.0215 -4.6662,-5.1165 -5.4348,-4.3478c-0.76862,0.76862 0,3.2609 0,7.6087c0,3.2609 -0.13297,6.5935 1.087,8.6956c1.9671,3.3896 2.5407,4.6848 4.3478,7.6087c1.6163,2.6152 2.2456,3.1279 4.3478,4.3478c3.3896,1.9671 6.5217,3.2609 7.6087,3.2609l1.0869,0l1.087,0l1.0869,0"/>
  <path id="svg_15" stroke-width="8" stroke="#000" fill="#46673D" d="m328.65,55.74c0,-1.087 1.5918,-0.50485 5.4348,-4.3478c3.843,-3.843 6.0804,-8.1663 8.6956,-9.7826c2.9239,-1.8071 4.3478,-1.087 5.4348,-1.087c1.0869,0 2.1739,0 2.1739,1.087l0,6.5217c0,3.2609 0,5.4348 -1.0869,6.5217s-3.2609,3.2609 -7.6087,3.2609l-4.3478,0l-2.1739,0l-1.0869,0"/>
  <path id="svg_16" stroke-width="8" stroke="#000" fill="#46673D" d="m369.96,232.91c-1.0869,0 -3.34,-2.0455 -8.6956,-5.4348c-3.3117,-2.0957 -5.1688,-6.6652 -7.6087,-10.87c-1.9671,-3.3896 -2.8196,-9.2438 -5.4348,-14.13c-1.4507,-2.7106 -2.4246,-4.6774 -1.0869,-5.4348c3.8999,-2.2081 6.8527,-2.7508 10.87,-1.0869c1.4202,0.58826 4.5779,1.8632 7.6087,4.3478c2.3775,1.9491 4.7999,4.0881 6.5217,7.6087c1.5102,3.0877 1.3367,6.5508 1.087,7.6087c-0.55844,2.3655 -1.9189,4.5133 -1.087,6.5217c1.1765,2.8404 2.1739,3.2609 3.2609,3.2609l0,1.0869"/>
  <path id="svg_17" stroke-width="8" stroke="#000" fill="#46673D" d="m394.96,168.78c-1.0869,0 -2.3807,-0.95818 -4.3478,-4.3478c-2.4399,-4.2043 -5.5226,-9.7658 -6.5217,-15.217c-1.192,-6.5034 -1.3033,-14.201 -2.1739,-19.565c-0.5506,-3.3929 -1.087,-4.3478 0,-4.3478c2.1739,0 5.6476,0.70528 9.7826,3.2609c4.6231,2.8572 7.6964,6.5049 8.6956,11.956c1.192,6.5034 3.2609,11.956 3.2609,15.217c0,4.3478 -2.1739,7.6087 -3.2609,8.6956l0,1.0869"/>
  <path id="svg_18" stroke-width="8" stroke="#000" fill="#46673D" d="m390.61,195.95c0,-1.0869 2.3335,-4.1992 4.3478,-6.5217c3.5608,-4.1057 6.8006,-9.1509 11.956,-10.87c3.0935,-1.0312 5.4348,-1.087 7.6087,-1.087c1.0869,0 1.6263,2.0737 2.1739,6.5217c0.53122,4.3152 0.52234,6.5638 0,9.7826c-0.55057,3.3928 -3.1008,4.536 -4.3478,5.4348c-3.9435,2.8422 -7.6087,3.2609 -9.7826,4.3478c-2.1739,1.0869 -3.2609,1.0869 -8.6956,2.1739l-5.4348,1.0869l-3.2609,1.0869l-1.0869,0"/>
  <path id="svg_19" stroke-width="8" stroke="#000" fill="#46673D" d="m427.56,127.48c-1.0869,0 -1.0869,-2.1739 -1.0869,-7.6087c0,-7.6087 -1.0869,-15.217 -1.0869,-21.739c0,-4.3478 0.32281,-9.3628 3.2609,-11.956c1.8221,-1.6085 4.1562,-1.6155 6.5217,-2.1739c4.2315,-0.99893 7.6914,-0.41597 8.6956,0c2.8403,1.1765 3.6127,5.572 2.1739,13.043c-1.1069,5.7478 -5.4348,11.956 -9.7826,18.478l-2.1739,4.3478l-2.1739,2.1739l0,1.087"/>
  <path id="svg_20" stroke-width="8" stroke="#000" fill="#46673D" d="m491.7,103.56c0,-1.087 0.24213,-1.8739 4.3478,-5.4348c4.6451,-4.0287 9.9271,-7.1408 14.13,-8.6956c4.5591,-1.6865 7.4171,-3.7894 9.7826,-4.3478c3.1736,-0.74919 5.4348,-1.087 7.6087,-1.087c1.0869,0 2.1739,0 2.1739,1.087c0,1.0869 -0.41809,5.8146 -4.3478,11.956c-3.751,5.8626 -8.5668,9.9894 -11.956,11.956c-2.1022,1.2199 -3.2609,1.0869 -6.5217,1.0869c-4.3478,0 -9.7826,-1.0869 -14.13,-1.0869l-2.1739,0l-1.087,0l0,-1.087"/>
  <path id="svg_21" stroke-width="8" stroke="#000" fill="#46673D" d="m471.04,105.74c2.1739,1.087 4.2191,2.3807 7.6086,4.3478c4.2044,2.4399 7.3331,4.523 10.87,9.7826c3.0325,4.51 7.9817,10.735 9.7826,16.304c1.3788,4.2642 1.8555,7.927 1.0869,8.6956c-0.76855,0.76857 -2.1395,-1.145 -7.6086,-4.3478c-7.562,-4.4285 -12.188,-7.2513 -17.391,-10.87c-5.7144,-3.9733 -11.663,-8.9444 -16.304,-14.13c-2.0504,-2.2908 -3.2609,-4.3478 -1.087,-4.3478l3.2609,1.0869l1.087,0l2.1739,1.087"/>
  <path id="svg_22" stroke-width="8" stroke="#000" fill="#46673D" d="m513.43,115.52l10.87,0c4.3478,0 6.0162,-0.74916 7.6086,1.087c2.2521,2.5967 3.8377,6.8527 2.1739,10.87c-0.58826,1.4202 -4.3478,3.2608 -7.6086,3.2608s-4.6848,0.72012 -7.6087,-1.0869c-5.2304,-3.2326 -6.5217,-7.6087 -7.6086,-11.956l-1.087,-3.2608l0,-1.087"/>
  <path id="svg_23" stroke-width="8" stroke="#000" fill="#46673D" d="m368.87,260.08c0,-1.0869 1.329,-1.8739 5.4348,-5.4348c4.6451,-4.0287 10.768,-8.852 17.391,-13.043c5.3556,-3.3892 7.6087,-5.4348 8.6956,-5.4348c1.0869,0 1.498,1.1262 1.0869,3.2609c-1.1069,5.7478 -7.6941,11.889 -11.956,17.391c-3.3284,4.2964 -6.5217,8.6956 -8.6956,9.7826c-4.3478,2.1739 -10.87,3.2609 -14.13,3.2609l-1.0869,0l-2.1739,0l-1.0869,0"/>
  <path id="svg_24" stroke-width="8" stroke="#000" fill="#46673D" d="m414.52,143.78c1.087,0 4.1366,-1.5744 8.6956,-3.2609c4.2032,-1.5549 8.3125,-3.231 13.043,-4.3478c5.2894,-1.2487 10.926,0.69646 15.217,0c3.3929,-0.55058 4.6661,-1.8556 5.4348,-1.087c1.5372,1.5372 0.92285,4.8202 -1.087,7.6087c-3.1777,4.4089 -10.791,5.6866 -17.391,7.6087c-4.3029,1.253 -8.7237,2.9126 -10.87,3.2609c-3.3929,0.55058 -6.5217,1.087 -9.7826,0l-2.1739,0l-1.087,0"/>
  <path id="svg_25" stroke-width="8" stroke="#000" fill="#46673D" d="m193.74,75.12c-0.93457,0 -4.7212,0.59882 -8.4112,0c-2.9172,-0.4734 -6.1345,-2.2128 -9.3458,-5.6074c-2.3157,-2.4479 -3.7383,-5.6074 -3.7383,-6.542c0,-0.93457 0.27373,-1.2083 0.93457,-1.8692c1.3217,-1.3217 6.542,-0.93458 9.3458,-0.93458c3.7383,0 6.4558,0.46376 10.28,0.93458c1.8551,0.22838 2.5164,1.1084 3.7383,2.8037c0.7728,1.0722 0.93457,3.7383 0.93457,5.6074l0,1.8691l0,0.93459l0,0.93457"/>
  <path id="svg_26" stroke-width="8" stroke="#000" fill="#46673D" d="m204.96,78.86c-0.93457,0 -0.93457,0.93457 -1.8692,1.8692c-0.93457,0.93457 -0.93457,1.8691 -0.93457,3.7383c0,0.93457 -0.35764,2.8749 0,3.7383c0.5058,1.2211 3.7383,1.8692 4.6729,1.8692c1.8692,0 3.9121,0.28734 5.6074,-0.93457c1.0722,-0.77281 1.8692,-1.8692 1.8692,-2.8037c0,-0.93459 0.93457,-2.8037 1.8691,-4.6729l-0.93457,0l-0.93457,-0.93457"/>
  <path id="svg_27" stroke-width="8" stroke="#000" fill="#46673D" d="m248.88,87.27c0,-0.93459 2.5034,-4.7916 3.7383,-7.4766c2.2771,-4.9509 4.7346,-8.2968 6.542,-9.3458c2.9145,-1.6913 7.3631,-3.2649 10.28,-3.7383c0.92252,-0.1497 2.3342,0.86523 2.8037,5.6074c0.73676,7.4402 -1.8692,13.084 -1.8692,17.757c0,3.7383 -1.5818,6.7159 -2.8037,8.4112c-1.5456,2.1444 -3.7383,3.7383 -5.6074,3.7383l-0.93457,0l-0.9346,0l-0.93457,0"/>
  <path id="svg_28" stroke-width="8" stroke="#000" fill="#46673D" d="m272.25,184.51c1.8691,-1.8691 4.3733,-3.3375 6.542,-7.4766c2.7432,-5.2356 4.6729,-11.215 5.6074,-14.019s4.3864,-5.1017 5.6074,-5.6074c1.7269,-0.71529 2.8037,0 4.6729,0c2.8037,0 6.2375,2.4739 7.4766,5.6074c2.0905,5.2865 1.6623,9.6435 -0.93457,14.953c-2.9609,6.054 -9.0583,9.7298 -12.149,14.019c-1.2219,1.6953 -3.2325,4.3864 -3.7383,5.6074c-0.35764,0.86343 0,1.8691 -0.93457,1.8691l-0.93457,0l-0.93457,0l0,0.93457"/>
  <path id="svg_29" stroke-width="8" stroke="#000" fill="none" d="m267.78,349.22c0,-1.0869 1.7373,-5.2179 4.3478,-14.13c4.3746,-14.935 6.5205,-35.792 7.6087,-58.696c1.2896,-27.143 -2.6908,-49.96 -4.3478,-75c-1.5807,-23.885 -3.7463,-44.675 -7.6087,-64.13c-2.8238,-14.224 -5.6304,-26.431 -9.7826,-35.869c-4.5062,-10.244 -9.9057,-15.038 -16.304,-19.565c-4.4366,-3.139 -10.907,-3.5981 -18.478,-4.3478c-11.031,-1.0923 -25.468,-4.0892 -38.043,0c-13.868,4.5097 -25,18.478 -36.956,35.869l-10.87,15.217l-6.5217,11.956l-1.0869,0"/>
  <path id="svg_30" stroke-width="8" stroke="#000" fill="none" d="m317.78,351.39c0,-5.4348 0.11575,-14.12 1.087,-26.087c1.2342,-15.206 3.2608,-33.696 4.3478,-50c1.0869,-16.304 2.1739,-32.609 2.1739,-50c0,-15.217 -0.28494,-31.595 -2.1739,-47.826c-1.5286,-13.135 -3.1268,-28.275 -4.3478,-39.13c-0.97955,-8.7084 -2.6068,-19.66 -4.3478,-29.348c-1.5854,-8.8219 -3.8025,-17.324 -4.3478,-23.913c-0.62756,-7.5828 1.0869,-13.043 5.4348,-17.391c4.3478,-4.3478 10.87,-7.6087 17.391,-10.87l6.5217,-2.1739"/>
  <path id="svg_31" stroke-width="8" stroke="#000" fill="none" d="m356.56,348.13l0,-5.4348c0,-8.6956 1.7362,-19.629 5.4348,-43.478c3.8888,-25.075 7.632,-56.019 16.304,-83.695c7.0009,-22.343 13.183,-39.039 21.739,-52.174c7.7354,-11.875 15.837,-23.32 25,-31.522c10.372,-9.2834 25.407,-18.854 35.869,-22.826c9.3685,-3.5572 21.739,-2.1739 32.609,-1.087l8.6956,3.2609l5.4348,3.2609l3.2609,2.1739"/>
 </g>

</svg>